SplineFontDB: 3.0
FontName: Radley-Italic
FullName: Radley Italic
FamilyName: Radley
Weight: Normal
Copyright: Copyright (c) 2011 by vernon adams. All rights reserved.
Version: 1.002
FONDName: Radley
ItalicAngle: -12
UnderlinePosition: -307
UnderlineWidth: 102
Ascent: 1638
Descent: 410
UFOAscent: 1344
UFODescent: -396
LayerCount: 2
Layer: 0 0 "Back"  1
Layer: 1 0 "Fore"  0
FSType: 0
OS2Version: 0
OS2_WeightWidthSlopeOnly: 0
OS2_UseTypoMetrics: 0
CreationTime: 1352277886
ModificationTime: 1352303807
PfmFamily: 0
TTFWeight: 400
TTFWidth: 0
LineGap: 0
VLineGap: 0
Panose: 2 0 5 3 0 0 0 2 0 3
OS2TypoAscent: 1973
OS2TypoAOffset: 0
OS2TypoDescent: -615
OS2TypoDOffset: 0
OS2TypoLinegap: 0
OS2WinAscent: 1973
OS2WinAOffset: 0
OS2WinDescent: -615
OS2WinDOffset: 0
HheadAscent: 1973
HheadAOffset: 0
HheadDescent: -615
HheadDOffset: 0
OS2SubXSize: 2726
OS2SubYSize: 2515
OS2SubXOff: -72
OS2SubYOff: 313
OS2SupXSize: 2726
OS2SupYSize: 2515
OS2SupXOff: 336
OS2SupYOff: 1466
OS2StrikeYSize: 102
OS2StrikeYPos: 512
OS2Vendor: 'newt'
OS2CodePages: 20000083.00000000
OS2UnicodeRanges: 00000007.00000000.00000000.00000000
Lookup: 258 0 0 "'kern' Horizontal Kerning in Latin lookup 0"  {"'kern' Horizontal Kerning in Latin lookup 0 subtable"  } ['kern' ('latn' <'dflt' > ) ]
DEI: 91125
LangName: 1033 "" "" "" "vernonadams: Radley Italic: 2011" "" "Version 1.002" "" "Radley Italic is a trademark of vernon adams." "vernon adams" "vernon adams" "Copyright (c) 2010 by vernon adams. All rights reserved." "" "http://www.newtypography.co.uk" "" "http://scripts.sil.org/OFL" "" "" "" "Radley Italic" 
PickledData: "(dp1
S'org.robofab.glyphOrder'
p2
(S'.notdef'
S'NULL'
S'CR'
S'space'
S'numbersign'
S'dollar'
S'percent'
S'ampersand'
S'quoteright'
S'parenleft'
S'parenright'
S'asterisk'
S'plus'
S'comma'
S'hyphen'
S'period'
S'slash'
S'zero'
S'one'
S'two'
S'three'
S'four'
S'five'
S'six'
S'seven'
S'eight'
S'nine'
S'colon'
S'semicolon'
S'less'
S'equal'
S'greater'
S'question'
S'at'
S'A'
S'B'
S'C'
S'D'
S'E'
S'F'
S'G'

StartChar: A
Encoding: 65 65 1
Width: 1278
VWidth: 0
Flags: HW
PickledData: "(dp1
S'com.fontlab.hintData'
p2
(dp3
S'vhints'
p4
((dp5
S'position'
p6
I758
sS'width'
p7
I143
s(dp8
g6
I776
sg7
I153
stp9
sS'hhints'
p10
((dp11
g6
I34
sg7
I70
s(dp12
g6
I418
sg7
I59
stp13
ss."
HStem: 34 70 418 59
VStem: 758 143 776 153
LayerCount: 2
Fore
SplineSet
245 143 m 0
 245 76 342 74 389 74 c 1
 398 70 398 36 398 30 c 0
 398 27 397 0 389 0 c 2
 -118 0 l 2
 -126 0 -126 17 -126 19 c 0
 -126 38 -117 58 -107 74 c 1
 6 74 67 116 129 211 c 2
 864 1264 l 1
 1027 1264 l 1
 1010 201 l 2
 1007 92 1079 74 1175 74 c 1
 1185 70 1185 37 1185 30 c 0
 1185 26 1184 0 1175 0 c 2
 677 0 l 2
 670 0 670 18 670 19 c 0
 670 38 679 58 688 74 c 1
 894 74 854.575195312 199.599609375 862 408 c 1
 400 408 l 1
 383 381 245 192 245 143 c 0
863 470 m 1
 879 1132 l 1
 438 470 l 1
 863 470 l 1
EndSplineSet
EndChar

StartChar: AE
Encoding: 198 198 2
Width: 1887
VWidth: 0
Flags: HW
LayerCount: 2
Fore
SplineSet
958 1064 m 1
 956 1066 l 1
 956 1113 900 1135 842 1139 c 1
 858 1208 l 1
 1995 1208 l 1
 1934 929 l 2
 1932 922 1898 894 1869 894 c 0
 1849 894 1838 901 1837 918 c 0
 1829 1051 1824 1140 1717 1140 c 2
 1422 1140 l 2
 1397 1140 1366 1130 1342 1069 c 2
 1204 722 l 1
 1489 722 l 2
 1599 722 1626 838 1657 838 c 2
 1719 838 l 1
 1635 508 l 1
 1581 508 l 1
 1577 546 1561 661 1483 661 c 2
 1181 661 l 1
 993 184 l 2
 985 163 984 150 983 140 c 1
 983 138 l 2
 983 103 1014 100 1027 100 c 2
 1332 100 l 2
 1469 100 1559 185 1610 306 c 0
 1618 325 1667 348 1702 348 c 0
 1726 348 1734 339 1734 329 c 0
 1734 326 1733 323 1733 323 c 1
 1606 29 l 1
 639 29 l 1
 672 99 l 1
 737 100 799 116 844 232 c 2
 944 491 l 1
 571 491 l 1
 327 231 l 2
 306 208 280 188 280 155 c 0
 280 113 324 101 393 99 c 1
 374 28 l 1
 -110 28 l 1
 -84 98 l 1
 -16 99 53 115 158 222 c 2
 934 1014 l 2
 949 1030 958 1046 958 1064 c 1
642 555 m 1
 974 555 l 1
 1181 1063 l 1
 1119 1063 l 1
 642 555 l 1
EndSplineSet
EndChar

StartChar: B
Encoding: 66 66 12
Width: 1243
VWidth: 0
Flags: HW
LayerCount: 2
Fore
SplineSet
600 706 m 2
 758 706 1025 751 1025 958 c 0
 1025 1139 828 1190 698 1190 c 0
 605 1190 537 1177 508 1057 c 1
 475 942 448 825 423 706 c 1
 600 706 l 2
301 88 m 1
 503 88 l 2
 703 88 969 118 969 377 c 0
 969 617 719 634 611 634 c 2
 408 634 l 1
 371 451 339 267 301 88 c 1
1197 983 m 0
 1197 819 1036 706 887 676 c 1
 1025 630 1134 536 1134 374 c 0
 1134 10 714 0 421 0 c 2
 -53 0 l 2
 -60 0 -60 18 -60 19 c 0
 -60 38 -51 59 -41 74 c 1
 66 74 133 104 156 218 c 0
 191 391 328 948 328 1091 c 0
 328 1217 176 1162 176 1209 c 0
 176 1227 181 1247 187 1264 c 1
 728 1264 l 2
 909 1264 1197 1220 1197 983 c 0
EndSplineSet
EndChar

StartChar: C
Encoding: 67 67 13
Width: 1210
VWidth: 0
Flags: HW
PickledData: "(dp1
S'com.fontlab.hintData'
p2
(dp3
S'vhints'
p4
((dp5
S'position'
p6
I85
sS'width'
p7
I188
s(dp8
g6
I1003
sg7
I171
stp9
sS'hhints'
p10
((dp11
g6
I-21
sg7
I112
s(dp12
g6
I1165
sg7
I90
stp13
ss."
HStem: -21 112 1165 90
VStem: 85 188 1003 171
LayerCount: 2
Fore
SplineSet
610 -34 m 0
 283 -34 101 279 101 574 c 0
 101 938 392 1301 772 1301 c 0
 974 1301 1254 1205 1254 961 c 0
 1254 916 1224 877 1177 877 c 0
 1019 877 1147 1199 798 1199 c 0
 471 1199 299 791 299 514 c 0
 299 296 387 84 638 84 c 0
 825 84 1008 215 1098 372 c 1
 1183 304 l 1
 1065 106 845 -34 610 -34 c 0
EndSplineSet
EndChar

StartChar: D
Encoding: 68 68 19
Width: 1359
VWidth: 0
Flags: HW
LayerCount: 2
Fore
SplineSet
756 1264 m 2
 1046 1264 1302 1066 1302 762 c 0
 1302 399 1024 0 635 0 c 2
 -53 0 l 1
 -60 18 l 1
 -42 73 l 1
 70 73 124 102 155 213 c 0
 194 356 346 984 346 1094 c 0
 346 1224 176 1160 176 1209 c 0
 176 1229 184 1249 197 1264 c 1
 756 1264 l 2
617 88 m 2
 937 88 1105 574 1105 836 c 0
 1105 1034 988 1190 765 1190 c 2
 678 1190 l 2
 589 1190 539 1173 519 1097 c 1
 303 88 l 1
 617 88 l 2
EndSplineSet
EndChar

StartChar: E
Encoding: 69 69 24
Width: 1144
VWidth: 0
Flags: HW
PickledData: "(dp1
S'com.fontlab.hintData'
p2
(dp3
S'vhints'
p4
((dp5
S'position'
p6
I839
sS'width'
p7
I46
s(dp8
g6
I1011
sg7
I96
stp9
sS'hhints'
p10
((dp11
g6
I27
sg7
I70
s(dp12
g6
I618
sg7
I71
s(dp13
g6
I906
sg7
I21
s(dp14
g6
I1137
sg7
I70
stp15
ss."
HStem: 27 70 618 71 906 21 1137 70
VStem: 839 46 1011 96
LayerCount: 2
Fore
SplineSet
192 1190 m 1
 190 1195 185 1205 185 1211 c 0
 185 1230 194 1250 206 1264 c 1
 1191 1264 l 1
 1192 969 l 1
 1176 955 1154 943 1132 943 c 0
 1117 943 1101 951 1090 961 c 1
 1067 1054 1049 1190 925 1190 c 2
 591 1190 l 2
 544 1190 525 1149 516 1110 c 2
 421 703 l 1
 726 703 l 2
 854 703 826 826 949 826 c 1
 857 476 l 1
 811 476 l 1
 805 533 783 628 710 628 c 2
 404 628 l 1
 369 467 298 294 298 128 c 0
 298 104 318 88 349 88 c 2
 673 88 l 2
 814 88 925 164 959 296 c 1
 989 309 1013 313 1033 313 c 0
 1054 313 1072 308 1088 305 c 1
 976 0 l 1
 -53 0 l 1
 -60 19 l 1
 -60 39 -52 59 -39 75 c 1
 65 75 114 115 139 215 c 0
 197 453 334 870 334 1098 c 0
 334 1181 254 1188 192 1190 c 1
EndSplineSet
EndChar

StartChar: Ecircumflex
Encoding: 202 202 27
Width: 1684
VWidth: 0
Flags: HW
LayerCount: 2
Fore
SplineSet
1594 503 m 2
 1611 503 1638 435 1638 408 c 0
 1638 401 1639 392 1636 392 c 2
 58 370 l 2
 28 369 16 425 16 451 c 0
 16 484 25 503 50 503 c 2
 1594 503 l 2
EndSplineSet
EndChar

StartChar: Eth
Encoding: 208 208 32
Width: 1359
VWidth: 0
Flags: HW
LayerCount: 2
Fore
SplineSet
614 74 m 2
 934 74 1105 576 1105 836 c 0
 1105 1047 989 1213 765 1213 c 2
 678 1213 l 2
 588 1213 539 1190 519 1097 c 2
 439 725 l 1
 640 725 l 1
 632 685 616 610 603 610 c 2
 414 610 l 1
 300 74 l 1
 614 74 l 2
81 610 m 1
 88 651 105 725 116 725 c 2
 274 725 l 1
 313 897 346 1054 346 1094 c 0
 346 1225 176 1159 176 1209 c 0
 176 1228 184 1250 197 1264 c 1
 756 1264 l 2
 1047 1264 1302 1067 1302 762 c 0
 1302 399 1024 0 635 0 c 2
 -53 0 l 2
 -60 0 -60 16 -60 18 c 0
 -60 31 -50 73 -37 73 c 0
 65 73 131 104 155 213 c 0
 168 272 208 437 248 610 c 1
 81 610 l 1
EndSplineSet
EndChar

StartChar: Euro
Encoding: 8364 8364 33
Width: 1137
VWidth: 0
Flags: HW
LayerCount: 2
Fore
SplineSet
237 772 m 1
 335 1041 554 1273 834 1273 c 0
 939 1273 1056 1249 1110 1169 c 0
 1146 1115 1124 1029 1126 957 c 1
 1035 957 l 1
 1013 1133 933 1230 799 1230 c 0
 634 1230 488 1060 406 794 c 1
 399 772 l 1
 605 772 l 2
 716 772 799 766 866 754 c 1
 857 739 843 716 803 716 c 2
 384 716 l 1
 371 662 l 2
 362 623 358 590 353 553 c 1
 549 553 l 2
 655 553 733 548 797 537 c 1
 782 522 775 497 732 497 c 2
 346 497 l 1
 344 471 343 444 343 418 c 0
 343 211 416 46 591 46 c 0
 721 46 835 141 891 221 c 1
 966 199 l 1
 891 102 742 -6 560 -6 c 0
 310 -6 176 177 176 438 c 0
 176 457 177 477 178 496 c 1
 108 496 l 2
 64 496 44 500 38 503 c 1
 47 525 59 552 101 552 c 2
 181 552 l 1
 188 601 194 646 211 694 c 1
 218 716 l 1
 122 716 l 1
 98 727 97 733 97 742 c 0
 97 766 98 772 178 772 c 2
 237 772 l 1
EndSplineSet
EndChar

StartChar: F
Encoding: 70 70 34
Width: 1064
VWidth: 0
Flags: HW
LayerCount: 2
Fore
SplineSet
321 165 m 0
 321 89 430 76 486 74 c 1
 487 65 490 54 490 45 c 0
 490 29 487 12 476 0 c 1
 -52 0 l 1
 -60 19 l 1
 -60 39 -51 60 -38 75 c 1
 70 75 133 106 160 216 c 0
 215 443 354 883 354 1095 c 0
 354 1182 280 1186 213 1190 c 1
 211 1199 208 1209 208 1219 c 0
 208 1235 211 1252 223 1264 c 1
 1159 1264 l 1
 1159 965 l 1
 1143 951 1122 939 1100 939 c 0
 1085 939 1069 947 1058 957 c 1
 1035 1050 1017 1190 892 1190 c 2
 605 1190 l 2
 559 1190 539 1149 530 1110 c 2
 425 646 l 1
 764 646 l 2
 869 646 910 768 940 768 c 2
 1007 768 l 1
 914 419 l 1
 858 419 l 1
 852 477 833 581 757 581 c 2
 409 581 l 1
 379 445 321 305 321 165 c 0
EndSplineSet
EndChar

StartChar: G
Encoding: 71 71 35
Width: 1304
VWidth: 0
Flags: HW
LayerCount: 2
Fore
SplineSet
1038 92 m 1
 921 12 782 -34 640 -34 c 0
 280 -34 101 253 101 586 c 0
 101 956 411 1301 789 1301 c 0
 993 1301 1228 1191 1228 958 c 0
 1228 914 1198 874 1151 874 c 0
 1010 874 1134 1199 794 1199 c 0
 480 1199 295 815 295 543 c 0
 295 333 413 74 656 74 c 0
 738 74 819 94 887 139 c 1
 915 229 950 336 950 431 c 0
 950 511 864 528 800 531 c 1
 816 607 l 1
 1297 607 l 1
 1274 531 l 1
 1110 530 1073 209 1038 92 c 1
EndSplineSet
EndChar

StartChar: H
Encoding: 72 72 37
Width: 1347
VWidth: 0
Flags: HW
LayerCount: 2
Fore
SplineSet
694 19 m 1
 714 74 l 1
 823 74 874 109 900 217 c 2
 998 632 l 1
 427 632 l 1
 391 483 321 317 321 164 c 0
 321 79 418 77 480 74 c 1
 481 65 484 54 484 45 c 0
 484 29 480 12 468 0 c 1
 -53 0 l 1
 -60 19 l 1
 -39 75 l 1
 70 75 127 107 154 216 c 0
 211 446 353 889 353 1105 c 0
 353 1187 253 1188 194 1190 c 1
 193 1200 190 1209 190 1219 c 0
 190 1235 194 1252 206 1264 c 1
 719 1264 l 1
 721 1259 726 1250 726 1244 c 0
 726 1224 717 1206 706 1190 c 1
 597 1190 545 1154 520 1046 c 2
 439 691 l 1
 1010 691 l 1
 1041 825 1099 963 1099 1102 c 0
 1099 1186 1001 1187 940 1189 c 1
 939 1199 936 1209 936 1219 c 0
 936 1235 940 1252 952 1264 c 1
 1473 1264 l 1
 1481 1244 l 1
 1460 1188 l 1
 1349 1188 1294 1158 1267 1047 c 0
 1221 860 1067 316 1067 162 c 0
 1067 79 1165 77 1226 74 c 1
 1228 65 1231 54 1231 44 c 0
 1231 28 1227 11 1215 0 c 1
 702 0 l 1
 694 19 l 1
EndSplineSet
EndChar

StartChar: I
Encoding: 73 73 38
Width: 575
VWidth: 0
Flags: HW
PickledData: "(dp1
S'com.fontlab.hintData'
p2
(dp3
S'hhints'
p4
((dp5
S'position'
p6
I27
sS'width'
p7
I70
s(dp8
g6
I1137
sg7
I70
stp9
ss."
HStem: 27 70 1137 70
LayerCount: 2
Fore
SplineSet
-39 76 m 1
 71 76 128 106 154 217 c 0
 209 450 340 883 340 1103 c 0
 340 1183 255 1188 195 1190 c 1
 194 1200 191 1209 191 1219 c 0
 191 1235 194 1252 206 1264 c 1
 702 1264 l 1
 704 1259 709 1250 709 1244 c 0
 709 1224 700 1206 688 1190 c 1
 576 1190 521 1160 495 1047 c 0
 441 815 310 382 310 163 c 0
 310 82 394 76 455 74 c 1
 456 65 459 54 459 45 c 0
 459 29 456 12 444 0 c 1
 -52 0 l 1
 -58 7 -61 15 -61 24 c 0
 -61 42 -51 63 -39 76 c 1
EndSplineSet
EndChar

StartChar: J
Encoding: 74 74 47
Width: 757
VWidth: 0
Flags: HW
PickledData: "(dp1
S'com.fontlab.hintData'
p2
(dp3
S'vhints'
p4
((dp5
S'position'
p6
I20
sS'width'
p7
I202
stp8
sS'hhints'
p9
((dp10
g6
I-306
sg7
I85
s(dp11
g6
I664
sg7
I94
s(dp12
g6
I1274
sg7
I81
stp13
ss."
HStem: -306 85 664 94 1274 81
VStem: 20 202
LayerCount: 2
Fore
SplineSet
522 1101 m 0
 522 1181 439 1188 377 1190 c 1
 374 1199 373 1209 373 1219 c 0
 373 1232 376 1254 388 1264 c 1
 884 1264 l 2
 891 1264 891 1244 891 1244 c 1
 891 1225 882 1205 870 1190 c 1
 763 1190 699 1162 677 1047 c 2
 526 260 l 2
 477 5 383 -267 77 -267 c 0
 -5 -267 -213 -232 -213 -122 c 0
 -213 -71 -173 -46 -126 -46 c 0
 -48 -46 29 -176 119 -176 c 0
 256 -176 299 25 321 128 c 2
 517 1061 l 2
 520 1074 522 1088 522 1101 c 0
EndSplineSet
EndChar

StartChar: K
Encoding: 75 75 49
Width: 1345
VWidth: 0
Flags: HW
LayerCount: 2
Fore
SplineSet
419 580 m 1
 389 447 331 307 331 170 c 0
 331 91 416 77 478 75 c 1
 464 0 l 1
 -52 0 l 1
 -60 19 l 1
 -38 75 l 1
 71 75 133 106 160 216 c 0
 198 370 349 972 349 1086 c 0
 349 1176 264 1187 193 1190 c 1
 192 1199 189 1210 189 1219 c 0
 189 1235 192 1251 201 1264 c 1
 719 1264 l 1
 697 1190 l 1
 596 1189 539 1146 518 1046 c 2
 444 691 l 1
 519 748 950 1036 950 1110 c 0
 950 1160 894 1185 852 1189 c 1
 868 1264 l 1
 1380 1264 l 1
 1357 1190 l 1
 1251 1181 775 848 775 759 c 0
 775 703 1036 269 1076 197 c 0
 1114 129 1151 79 1235 75 c 1
 1221 0 l 1
 781 0 l 1
 802 74 l 1
 837 77 906 94 906 139 c 0
 906 168 663 652 628 724 c 1
 419 580 l 1
EndSplineSet
EndChar

StartChar: L
Encoding: 76 76 50
Width: 997
VWidth: 0
Flags: HW
PickledData: "(dp1
S'com.fontlab.hintData'
p2
(dp3
S'hhints'
p4
((dp5
S'position'
p6
I27
sS'width'
p7
I70
s(dp8
g6
I1137
sg7
I70
stp9
ss."
HStem: 27 70 1137 70
LayerCount: 2
Fore
SplineSet
885 310 m 0
 916 310 948 310 979 304 c 1
 866 0 l 1
 -52 0 l 1
 -60 18 l 1
 -39 73 l 1
 71 73 131 104 159 214 c 0
 196 359 346 977 346 1083 c 0
 346 1173 263 1188 192 1190 c 1
 190 1199 187 1208 187 1218 c 0
 187 1235 190 1252 203 1264 c 1
 739 1264 l 1
 717 1190 l 1
 610 1189 540 1157 512 1048 c 0
 478 919 314 212 314 130 c 0
 314 74 441 74 478 74 c 0
 659 74 798 99 852 296 c 1
 852 298 l 1
 857 300 881 310 885 310 c 0
EndSplineSet
EndChar

StartChar: Lslash
Encoding: 321 321 54
Width: 997
VWidth: 0
Flags: HW
PickledData: "(dp1
S'com.fontlab.hintData'
p2
(dp3
S'hhints'
p4
((dp5
S'position'
p6
I27
sS'width'
p7
I70
s(dp8
g6
I1137
sg7
I70
stp9
ss."
HStem: 27 70 1137 70
LayerCount: 2
Fore
SplineSet
756 969 m 1
 775 968 803 959 803 951 c 0
 803 932 673 872 652 862 c 1
 53 612 l 2
 50 611 47 610 44 610 c 0
 32 610 18 621 12 637 c 1
 756 969 l 1
EndSplineSet
Refer: 50 76 N 1 0 0 1 0 0 2
EndChar

StartChar: M
Encoding: 77 77 55
Width: 1636
VWidth: 0
Flags: HW
LayerCount: 2
Fore
SplineSet
448 74 m 1
 450 65 453 54 453 45 c 0
 453 29 449 12 437 0 c 1
 -75 0 l 1
 -83 19 l 1
 -61 75 l 1
 47 75 112 106 140 216 c 0
 178 365 336 983 336 1091 c 0
 336 1176 238 1190 173 1191 c 1
 171 1219 l 1
 171 1235 175 1252 187 1264 c 1
 674 1264 l 1
 767 288 l 1
 1318 1264 l 1
 1749 1264 l 1
 1751 1259 1756 1250 1756 1244 c 0
 1756 1224 1747 1206 1735 1190 c 1
 1629 1190 1581 1149 1556 1047 c 0
 1499 818 1357 376 1357 161 c 0
 1357 87 1467 76 1521 74 c 1
 1522 65 1525 54 1525 45 c 0
 1525 29 1521 12 1509 0 c 1
 990 0 l 1
 983 19 l 1
 1003 74 l 1
 1112 74 1172 108 1198 217 c 2
 1426 1172 l 1
 1345 1036 773 8 696 8 c 0
 663 8 654 47 651 73 c 2
 510 1162 l 1
 452 922 276 375 276 163 c 0
 276 83 390 74 448 74 c 1
EndSplineSet
EndChar

StartChar: N
Encoding: 78 78 56
Width: 1385
VWidth: 0
Flags: HW
PickledData: "(dp1
S'com.fontlab.hintData'
p2
(dp3
S'hhints'
p4
((dp5
S'position'
p6
I-19
sS'width'
p7
I21
s(dp8
g6
I20
sg7
I70
s(dp9
g6
I1130
sg7
I70
stp10
ss."
HStem: -19 21 20 70 1130 70
LayerCount: 2
Fore
SplineSet
-52 0 m 1
 -53 -2 l 1
 -60 17 l 1
 -39 73 l 1
 68 73 130 105 155 214 c 0
 178 317 354 1057 354 1110 c 0
 354 1200 184 1173 184 1206 c 0
 184 1226 190 1246 198 1264 c 1
 632 1264 l 1
 1015 220 l 1
 1036 318 1207 1058 1207 1107 c 0
 1207 1177 1108 1190 1055 1190 c 1
 1043 1202 1041 1218 1041 1234 c 1
 1044 1264 l 1
 1525 1264 l 1
 1528 1234 l 1
 1528 1218 1526 1202 1514 1190 c 1
 1409 1190 1358 1149 1335 1046 c 2
 1094 -30 l 1
 1072 -37 1049 -40 1026 -40 c 0
 1010 -40 960 -41 953 -23 c 2
 502 1169 l 1
 478 1060 282 201 282 148 c 0
 282 89 399 76 441 74 c 1
 442 65 445 54 445 45 c 0
 445 29 441 12 429 0 c 1
 -52 0 l 1
EndSplineSet
EndChar

StartChar: O
Encoding: 79 79 61
Width: 1239
VWidth: 0
Flags: HW
PickledData: "(dp1
S'com.fontlab.hintData'
p2
(dp3
S'vhints'
p4
((dp5
S'position'
p6
I87
sS'width'
p7
I187
s(dp8
g6
I960
sg7
I190
stp9
sS'hhints'
p10
((dp11
g6
I-21
sg7
I105
s(dp12
g6
I1168
sg7
I87
stp13
ss."
HStem: -21 105 1168 87
VStem: 87 187 960 190
LayerCount: 2
Fore
SplineSet
725 1301 m 0
 1048 1301 1216 1055 1216 737 c 0
 1216 384 982 -34 575 -34 c 0
 252 -34 101 237 101 544 c 0
 101 889 325 1301 725 1301 c 0
580 78 m 0
 883 78 1026 507 1026 753 c 0
 1026 958 959 1199 711 1199 c 0
 415 1199 288 731 288 499 c 0
 288 312 353 78 580 78 c 0
EndSplineSet
EndChar

StartChar: OE
Encoding: 338 338 62
Width: 1811
VWidth: 0
Flags: HW
LayerCount: 2
Fore
SplineSet
1733 314 m 1
 1730 311 l 1
 1652 26 l 1
 574 26 l 2
 261 26 82 251 82 558 c 0
 82 884 317 1206 857 1206 c 2
 1842 1206 l 1
 1829 927 l 2
 1828 921 1802 895 1773 895 c 0
 1754 895 1738 903 1734 921 c 0
 1702 1053 1684 1136 1579 1136 c 2
 1276 1136 l 2
 1252 1136 1219 1125 1205 1062 c 2
 1121 688 l 1
 1406 688 l 2
 1515 688 1542 804 1573 804 c 2
 1635 804 l 1
 1550 474 l 1
 1496 474 l 1
 1492 512 1476 627 1399 627 c 2
 1107 627 l 1
 1007 178 l 2
 1004 166 1003 155 1003 147 c 0
 1003 104 1033 97 1052 97 c 2
 1365 97 l 2
 1501 97 1579 182 1610 302 c 0
 1614 318 1656 341 1693 341 c 0
 1722 341 1733 329 1733 314 c 1
611 115 m 2
 796 115 l 1
 1017 1131 l 1
 862 1131 l 2
 436 1131 263 783 263 506 c 0
 263 294 374 115 611 115 c 2
EndSplineSet
EndChar

StartChar: Oslash
Encoding: 216 216 68
Width: 1197
VWidth: 0
Flags: HW
LayerCount: 2
Fore
SplineSet
662 1254 m 0
 745 1254 818 1229 889 1193 c 1
 922 1259 967 1326 996 1343 c 1
 1004 1335 1039 1333 1047 1329 c 1
 1017 1268 989 1204 953 1144 c 1
 957 1140 l 1
 1073 1044 1151 889 1151 689 c 0
 1151 349 893 -23 556 -23 c 0
 487 -23 413 -2 354 38 c 1
 326 -17 293 -83 254 -127 c 0
 246 -136 230 -130 217 -130 c 2
 207 -130 l 1
 211 -76 234 -24 264 28 c 2
 297 85 l 1
 174 184 88 354 88 550 c 0
 88 907 335 1254 662 1254 c 0
842 1101 m 1
 799 1144 738 1168 667 1168 c 0
 430 1168 274 799 274 516 c 0
 274 396 302 294 354 216 c 1
 811 1038 l 1
 842 1101 l 1
400 132 m 1
 437 102 485 84 542 84 c 2
 543 84 l 2
 794 84 959 447 959 730 c 0
 959 840 933 929 891 1007 c 1
 735 718 555 418 400 132 c 1
EndSplineSet
EndChar

StartChar: P
Encoding: 80 80 70
Width: 1105
VWidth: 0
Flags: HW
LayerCount: 2
Fore
SplineSet
507 74 m 1
 509 65 512 54 512 45 c 0
 512 30 506 12 496 0 c 1
 -52 0 l 1
 -60 19 l 1
 -38 75 l 1
 75 74 141 99 171 215 c 0
 210 364 364 981 364 1093 c 0
 364 1187 239 1192 172 1191 c 1
 171 1201 168 1209 168 1219 c 0
 168 1234 174 1252 184 1264 c 1
 446 1264 l 2
 673 1264 1181 1259 1181 934 c 0
 1181 677 821 612 623 612 c 0
 595 612 574 622 574 653 c 0
 574 670 586 686 604 686 c 0
 760 686 987 743 987 937 c 0
 987 1140 713 1190 557 1190 c 1
 509 969 336 345 336 169 c 0
 336 83 444 75 507 74 c 1
EndSplineSet
EndChar

StartChar: Q
Encoding: 81 81 71
Width: 1249
VWidth: 0
Flags: HW
LayerCount: 2
Fore
SplineSet
1023 787 m 0
 1023 980 942 1199 716 1199 c 0
 430 1199 300 744 300 516 c 0
 300 354 380 83 581 83 c 0
 884 83 1023 543 1023 787 c 0
229 -193 m 0
 282 -132 407 -41 451 2 c 1
 229 112 101 331 101 577 c 0
 101 898 358 1301 709 1301 c 0
 1025 1301 1226 1022 1226 724 c 0
 1226 420 973 -35 630 -35 c 0
 619 -35 609 -33 598 -31 c 1
 468 -116 l 1
 621 -160 831 -203 995 -212 c 1
 1007 -229 1012 -259 1012 -304 c 0
 1012 -326 996 -346 963 -346 c 0
 767 -346 498 -198 380 -198 c 0
 340 -198 311 -257 284 -257 c 0
 247 -257 223 -229 223 -208 c 0
 223 -202 225 -197 229 -193 c 0
EndSplineSet
EndChar

StartChar: R
Encoding: 82 82 72
Width: 1250
VWidth: 0
Flags: HW
PickledData: "(dp1
S'com.fontlab.hintData'
p2
(dp3
S'vhints'
p4
((dp5
S'position'
p6
I941
sS'width'
p7
I165
stp8
sS'hhints'
p9
((dp10
g6
I-20
sg7
I127
s(dp11
g6
I27
sg7
I70
s(dp12
g6
I590
sg7
I72
s(dp13
g6
I1137
sg7
I70
stp14
ss."
HStem: -20 127 27 70 590 72 1137 70
VStem: 941 165
LayerCount: 2
Fore
SplineSet
427 684 m 1
 948 684 1023 793 1023 956 c 0
 1023 1125 863 1191 616 1191 c 1
 541 1190 l 1
 427 684 l 1
490 75 m 1
 498 42 l 1
 482 0 l 1
 -52 0 l 1
 -60 17 l 1
 -38 73 l 1
 74 73 131 102 160 214 c 0
 195 347 351 988 351 1081 c 0
 351 1172 266 1187 193 1189 c 1
 191 1198 188 1208 188 1218 c 0
 188 1234 194 1252 204 1264 c 1
 552 1264 l 2
 776 1264 1200 1253 1200 941 c 0
 1200 711 983 630 785 607 c 1
 954 95 945 94 1150 94 c 0
 1158 94 1167 95 1175 96 c 1
 1175 35 1150 -19 1082 -19 c 0
 830 -19 813 59 626 599 c 1
 408 599 l 1
 379 469 324 303 324 170 c 0
 324 83 425 75 490 75 c 1
EndSplineSet
EndChar

StartChar: S
Encoding: 83 83 76
Width: 1038
VWidth: 0
Flags: HW
PickledData: "(dp1
S'com.fontlab.hintData'
p2
(dp3
S'vhints'
p4
((dp5
S'position'
p6
I-105
sS'width'
p7
I188
s(dp8
g6
I813
sg7
I171
stp9
sS'hhints'
p10
((dp11
g6
I-21
sg7
I112
s(dp12
g6
I1165
sg7
I90
stp13
ss."
HStem: -21 112 1165 90
VStem: -105 188 813 171
LayerCount: 2
Fore
SplineSet
533 69 m 0
 680 69 767 138 767 290 c 0
 767 555 255 693 255 1005 c 0
 255 1216 456 1301 639 1301 c 0
 816 1301 1054 1215 1054 1003 c 0
 1054 959 1022 920 976 920 c 0
 825 920 947 1199 618 1199 c 0
 505 1199 425 1129 425 1013 c 0
 425 754 936 622 936 299 c 0
 936 69 740 -32 534 -32 c 0
 307 -32 42 97 42 355 c 0
 42 399 74 438 120 438 c 0
 282 438 156 69 533 69 c 0
EndSplineSet
EndChar

StartChar: T
Encoding: 84 84 81
Width: 1109
VWidth: 0
Flags: HW
LayerCount: 2
Fore
SplineSet
543 164 m 0
 543 85 650 76 709 74 c 1
 710 65 713 54 713 45 c 0
 713 28 706 11 693 0 c 1
 135 0 l 1
 127 19 l 1
 148 75 l 1
 254 75 340 100 365 215 c 2
 576 1190 l 1
 333 1190 l 2
 241 1190 192 929 102 929 c 0
 82 929 62 938 49 954 c 1
 119 1264 l 1
 1247 1264 l 1
 1183 965 l 1
 1163 946 1136 930 1107 930 c 0
 1029 930 1085 1190 991 1190 c 2
 763 1190 l 1
 704 920 543 328 543 164 c 0
EndSplineSet
EndChar

StartChar: Thorn
Encoding: 222 222 84
Width: 1053
VWidth: 0
Flags: HW
LayerCount: 2
Fore
SplineSet
491 1037 m 1
 972 1012 1063 870 1063 730 c 0
 1063 596 925 426 538 426 c 0
 501 426 493 444 493 465 c 0
 493 482 504 496 521 496 c 0
 811 496 882 648 882 738 c 0
 882 824 811 980 492 980 c 2
 479 980 l 1
 313 217 l 2
 310 204 309 192 309 181 c 2
 309 180 l 1
 307 177 l 1
 313 122 363 100 466 96 c 0
 470 96 470 84 470 68 c 0
 470 38 461 26 456 26 c 2
 -60 26 l 2
 -63 26 -67 26 -67 44 c 0
 -67 72 -51 97 -47 97 c 0
 33 97 123 103 151 229 c 2
 325 1015 l 2
 328 1026 329 1037 329 1047 c 0
 329 1133 230 1136 164 1136 c 2
 149 1136 l 2
 146 1136 145 1138 145 1164 c 0
 145 1194 154 1206 160 1206 c 2
 530 1206 l 1
 491 1037 l 1
EndSplineSet
EndChar

StartChar: U
Encoding: 85 85 85
Width: 1329
VWidth: 0
Flags: HW
PickledData: "(dp1
S'com.fontlab.hintData'
p2
(dp3
S'vhints'
p4
((dp5
S'position'
p6
I165
sS'width'
p7
I170
stp8
sS'hhints'
p9
((dp10
g6
I-21
sg7
I129
s(dp11
g6
I1130
sg7
I70
stp12
ss."
HStem: -21 129 1130 70
VStem: 165 170
LayerCount: 2
Fore
SplineSet
684 1244 m 1
 664 1190 l 1
 552 1190 504 1156 479 1046 c 2
 365 551 l 2
 357 518 353 483 353 449 c 0
 353 275 451 102 648 102 c 0
 863 102 973 311 1014 495 c 2
 1125 992 l 2
 1134 1035 1137 1075 1137 1102 c 0
 1137 1185 1041 1189 980 1190 c 1
 979 1200 976 1209 976 1219 c 0
 976 1234 982 1252 992 1264 c 1
 1457 1264 l 1
 1465 1244 l 1
 1444 1190 l 1
 1332 1190 1278 1158 1251 1045 c 1
 1123 485 l 2
 1058 203 892 -34 586 -34 c 0
 323 -34 175 187 175 423 c 0
 175 468 180 513 191 558 c 2
 308 1037 l 2
 311 1052 313 1065 313 1078 c 0
 313 1153 255 1190 177 1190 c 2
 146 1190 l 1
 145 1200 142 1209 142 1219 c 0
 142 1234 148 1252 158 1264 c 1
 676 1264 l 1
 684 1244 l 1
EndSplineSet
EndChar

StartChar: V
Encoding: 86 86 94
Width: 1186
VWidth: 0
Flags: HW
LayerCount: 2
Fore
SplineSet
1347 1264 m 1
 1345 1261 l 1
 1349 1252 1350 1241 1350 1231 c 0
 1350 1217 1347 1198 1336 1187 c 1
 1229 1187 1161 1139 1103 1050 c 2
 414 -8 l 1
 253 -8 l 1
 262 1062 l 2
 263 1228 58 1159 58 1209 c 0
 58 1228 64 1247 72 1264 c 1
 600 1264 l 1
 603 1254 605 1243 605 1233 c 0
 605 1220 603 1200 593 1190 c 1
 487 1190 421 1163 420 1043 c 2
 411 202 l 1
 479 308 986 1042 986 1121 c 0
 986 1219 853 1161 853 1209 c 0
 853 1228 859 1247 866 1264 c 1
 1347 1264 l 1
EndSplineSet
EndChar

StartChar: W
Encoding: 87 87 95
Width: 1880
VWidth: 0
Flags: HW
LayerCount: 2
Fore
SplineSet
1516 1209 m 0
 1516 1228 1522 1247 1530 1264 c 1
 2039 1264 l 1
 2043 1255 2045 1243 2045 1233 c 0
 2045 1218 2041 1199 2030 1189 c 1
 1920 1189 1841 1151 1786 1052 c 2
 1196 -7 l 1
 1033 -7 l 1
 950 869 l 1
 472 -7 l 1
 310 -7 l 1
 245 1062 l 2
 234 1240 42 1153 42 1209 c 0
 42 1228 48 1247 56 1264 c 1
 589 1264 l 1
 591 1254 594 1242 594 1232 c 0
 594 1219 592 1198 581 1189 c 1
 485 1189 406 1169 406 1055 c 0
 406 779 437 492 452 216 c 1
 511 325 930 1044 930 1124 c 0
 930 1215 800 1163 800 1209 c 0
 800 1228 806 1247 813 1264 c 1
 1291 1264 l 1
 1295 1254 1296 1243 1296 1233 c 0
 1296 1219 1293 1200 1283 1189 c 1
 1200 1189 1092 1181 1092 1071 c 0
 1092 810 1145 474 1169 208 c 1
 1221 301 1664 1060 1664 1121 c 0
 1664 1219 1516 1161 1516 1209 c 0
EndSplineSet
EndChar

StartChar: X
Encoding: 88 88 96
Width: 1266
VWidth: 0
Flags: HW
PickledData: "(dp1
S'com.fontlab.hintData'
p2
(dp3
S'hhints'
p4
((dp5
S'position'
p6
I27
sS'width'
p7
I70
s(dp8
g6
I1137
sg7
I70
stp9
ss."
HStem: 27 70 1137 70
LayerCount: 2
Fore
SplineSet
-114 19 m 2
 -116 20 l 1
 -116 40 -107 61 -94 76 c 1
 27 76 103 132 183 217 c 2
 588 650 l 1
 363 1047 l 2
 308 1144 262 1188 148 1188 c 1
 136 1203 127 1224 127 1244 c 1
 127 1244 127 1264 134 1264 c 2
 651 1264 l 1
 663 1254 666 1233 666 1219 c 0
 666 1209 665 1198 661 1189 c 1
 612 1187 508 1174 508 1107 c 0
 508 1060 665 811 694 760 c 1
 743 811 1005 1047 1005 1107 c 0
 1005 1158 932 1186 890 1189 c 1
 887 1199 886 1209 886 1219 c 0
 886 1233 889 1254 901 1264 c 1
 1376 1264 l 2
 1384 1264 1384 1246 1384 1244 c 0
 1384 1224 1375 1203 1363 1187 c 1
 1247 1187 1172 1128 1096 1047 c 2
 743 673 l 1
 996 217 l 2
 1051 119 1096 76 1211 76 c 1
 1223 61 1232 40 1232 20 c 1
 1230 19 l 2
 1230 18 1230 0 1223 0 c 2
 706 0 l 1
 694 10 691 31 691 45 c 0
 691 55 692 65 695 74 c 1
 744 76 848 93 848 158 c 0
 848 206 670 504 638 561 c 1
 593 511 285 203 285 151 c 0
 285 87 396 74 441 74 c 1
 444 65 445 55 445 45 c 0
 445 31 442 10 430 0 c 1
 -107 0 l 2
 -114 0 -114 18 -114 19 c 2
EndSplineSet
EndChar

StartChar: Y
Encoding: 89 89 97
Width: 1119
VWidth: 0
Flags: HW
PickledData: "(dp1
S'com.fontlab.hintData'
p2
(dp3
S'hhints'
p4
((dp5
S'position'
p6
I27
sS'width'
p7
I70
s(dp8
g6
I1137
sg7
I70
stp9
ss."
HStem: 27 70 1137 70
LayerCount: 2
Fore
SplineSet
1276 1264 m 1
 1281 1254 1283 1241 1283 1230 c 0
 1283 1215 1279 1196 1268 1186 c 1
 1169 1186 1095 1129 1036 1053 c 2
 571 455 l 1
 554 366 518 256 518 166 c 0
 518 79 610 77 675 74 c 1
 678 65 679 55 679 45 c 0
 679 30 676 10 664 0 c 1
 152 0 l 2
 144 0 144 17 144 19 c 0
 144 39 153 60 165 75 c 1
 389 75 362 254 396 443 c 1
 225 1068 l 2
 196 1173 132 1188 30 1188 c 0
 22 1188 22 1205 22 1208 c 0
 22 1227 28 1247 36 1264 c 1
 533 1264 l 1
 537 1254 538 1243 538 1233 c 0
 538 1219 536 1199 525 1188 c 1
 455 1188 375 1171 375 1084 c 0
 375 967 479 671 512 544 c 1
 567 618 916 1039 916 1121 c 0
 916 1219 783 1161 783 1209 c 0
 783 1228 789 1247 796 1264 c 1
 1276 1264 l 1
EndSplineSet
EndChar

StartChar: Z
Encoding: 90 90 100
Width: 1065
VWidth: 0
Flags: HW
LayerCount: 2
Fore
SplineSet
1115 1264 m 1
 1117 1256 1118 1246 1118 1238 c 0
 1118 1199 1105 1165 1084 1132 c 0
 999 999 259 146 203 75 c 1
 597 75 l 2
 744 75 811 169 880 296 c 0
 886 308 903 311 915 311 c 0
 946 311 978 310 1009 305 c 1
 896 0 l 1
 31 0 l 2
 10 0 -12 39 -12 65 c 0
 -12 71 -10 77 -7 81 c 0
 301 437 608 804 945 1188 c 5
 518 1188 l 2
 372 1188 304 1094 236 968 c 0
 229 956 213 953 201 953 c 0
 170 953 138 953 107 958 c 1
 220 1264 l 1
 1115 1264 l 1
EndSplineSet
EndChar

StartChar: a
Encoding: 97 97 104
Width: 1125
VWidth: 0
Flags: HW
PickledData: "(dp1
S'com.fontlab.hintData'
p2
(dp3
S'vhints'
p4
((dp5
S'position'
p6
I70
sS'width'
p7
I167
s(dp8
g6
I668
sg7
I133
stp9
sS'hhints'
p10
((dp11
g6
I-21
sg7
I128
s(dp12
g6
I-20
sg7
I110
s(dp13
g6
I850
sg7
I42
stp14
ss."
HStem: -21 128<839.5 865.5> -20 110 850 42
VStem: 70 167 668 133
LayerCount: 2
Fore
SplineSet
1137 264 m 1
 1072 167 937 -21 794 -21 c 0
 772 -21 677 -4 677 156 c 0
 677 166 677 174 690 263 c 1
 621 106 513 -19 337 -19 c 0
 201 -19 71 82 71 322 c 0
 71 609 276 891 535 891 c 0
 707 891 771 762 777 689 c 1
 817 820 l 1
 826 846 841 864 872 864 c 0
 919 864 956 833 956 795 c 0
 956 788 953 777 951 769 c 2
 859 470 l 2
 829 374 801 273 801 201 c 0
 801 153 816 107 863 107 c 0
 941 107 1047 265 1083 310 c 1
 1137 264 l 1
550 797 m 0
 422 797 238 603 238 347 c 0
 238 178 300 91 390 91 c 0
 562 91 734 371 734 583 c 0
 734 694 653 797 550 797 c 0
EndSplineSet
EndChar

StartChar: acute
Encoding: 180 180 108
Width: 566
VWidth: 0
Flags: HW
LayerCount: 2
Fore
SplineSet
498 1337 m 0
 414 1244 267 1071 213 1012 c 0
 203 1001 190 997 187 997 c 0
 182 997 176 1001 176 1011 c 0
 176 1015 178 1024 179 1028 c 0
 238 1139 339 1324 386 1411 c 0
 396 1430 408 1436 424 1436 c 0
 461 1436 506 1390 506 1358 c 0
 506 1349 505 1344 498 1337 c 0
EndSplineSet
EndChar

StartChar: ae
Encoding: 230 230 110
Width: 1404
VWidth: 0
Flags: HW
LayerCount: 2
Fore
SplineSet
628 166 m 1
 566 89 474 -11 365 -11 c 0
 218 -11 94 128 70 271 c 1
 70 272 l 1
 71 271 l 1
 66 291 65 311 65 333 c 0
 65 560 257 777 471 777 c 0
 535 777 591 710 663 710 c 0
 725 710 718 778 752 778 c 0
 801 778 826 710 862 710 c 0
 927 710 1024 776 1079 776 c 0
 1205 776 1317 705 1317 567 c 0
 1317 355 968 312 790 302 c 1
 809 132 851 101 978 101 c 0
 1136 101 1187 253 1260 253 c 0
 1282 253 1299 240 1299 211 c 0
 1299 67 1113 -12 961 -12 c 0
 825 -12 731 55 628 166 c 1
249 251 m 1
 258 203 293 100 370 100 c 0
 541 100 624 326 624 483 c 0
 624 529 594 707 469 707 c 0
 306 707 244 483 244 330 c 0
 244 302 247 275 249 252 c 1
 249 251 l 1
798 454 m 0
 798 441 802 421 809 408 c 1
 819 408 l 2
 907 408 1159 430 1159 587 c 0
 1159 694 1073 702 1021 702 c 0
 906 702 798 575 798 454 c 0
EndSplineSet
EndChar

StartChar: ampersand
Encoding: 38 38 113
Width: 1633
VWidth: 0
Flags: HW
LayerCount: 2
Fore
SplineSet
737 0 m 0
 456 0 98 179 98 498 c 0
 98 649 168 759 290 841 c 1
 266 892 259 945 259 1001 c 0
 259 1168 419 1301 580 1301 c 0
 673 1301 795 1246 795 1138 c 0
 795 1092 750 1044 703 1044 c 0
 622 1044 511 1127 417 1127 c 0
 341 1127 328 1046 328 986 c 0
 328 944 335 905 351 866 c 1
 380 875 409 886 440 886 c 0
 494 886 539 856 539 798 c 0
 539 744 496 699 442 699 c 0
 384 699 349 732 321 779 c 1
 230 740 175 641 175 544 c 0
 175 242 515 163 757 163 c 0
 983 163 1325 242 1325 525 c 0
 1325 748 1175 868 960 868 c 0
 839 868 694 805 694 665 c 0
 694 573 772 484 867 484 c 0
 959 484 925 560 925 615 c 0
 925 665 954 699 1005 699 c 0
 1060 699 1102 653 1102 599 c 0
 1102 480 995 412 885 412 c 0
 745 412 623 505 623 652 c 0
 623 880 823 1009 1034 1009 c 0
 1184 1009 1324 942 1474 942 c 0
 1546 942 1611 991 1611 1067 c 0
 1611 1110 1580 1181 1529 1181 c 0
 1480 1181 1465 1094 1394 1094 c 0
 1344 1094 1298 1122 1298 1177 c 0
 1298 1241 1356 1272 1414 1272 c 0
 1557 1272 1685 1211 1685 1051 c 0
 1685 912 1571 815 1436 815 c 0
 1389 815 1343 823 1296 826 c 1
 1357 734 1396 656 1396 543 c 0
 1396 175 1068 0 737 0 c 0
EndSplineSet
EndChar

StartChar: asciicircum
Encoding: 94 94 116
Width: 935
VWidth: 0
Flags: HW
LayerCount: 2
Fore
SplineSet
644 1358 m 1
 645 1358 l 1
 713 1166 801 942 847 749 c 1
 823 742 792 723 779 739 c 0
 684 860 643 1046 579 1200 c 1
 568 1225 l 1
 550 1204 l 2
 417 1049 354 739 152 739 c 0
 130 739 111 741 93 746 c 1
 206 917 375 1124 501 1289 c 0
 525 1321 549 1374 589 1374 c 0
 613 1374 630 1367 644 1358 c 1
EndSplineSet
EndChar

StartChar: asciitilde
Encoding: 126 126 117
Width: 1082
VWidth: 0
Flags: HW
LayerCount: 2
Fore
SplineSet
914 829 m 1
 969 829 l 1
 935 688 852 600 735 600 c 0
 582 600 453 730 331 730 c 0
 252 730 202 678 176 613 c 1
 120 613 l 1
 163 738 234 834 368 834 c 0
 501 834 645 701 761 701 c 0
 848 701 893 757 914 829 c 1
EndSplineSet
EndChar

StartChar: asterisk
Encoding: 42 42 118
Width: 1134
VWidth: 0
Flags: HW
LayerCount: 2
Fore
SplineSet
780 1224 m 1
 783 1226 l 1
 753 1077 637 789 637 789 c 1
 637 789 1043 993 1096 993 c 0
 1130 993 1151 965 1151 933 c 0
 1151 888 1114 850 1071 841 c 2
 649 753 l 1
 649 753 869 476 869 400 c 0
 869 356 810 312 769 312 c 0
 745 312 722 327 715 351 c 2
 605 734 l 1
 605 734 354 312 259 312 c 0
 226 312 196 338 196 372 c 0
 196 449 572 750 572 750 c 1
 176 841 l 2
 152 847 134 870 134 895 c 0
 134 941 185 992 231 992 c 0
 282 992 595 792 595 792 c 1
 595 792 594 1088 629 1222 c 0
 640 1263 682 1292 724 1292 c 0
 762 1292 791 1262 780 1224 c 1
EndSplineSet
EndChar

StartChar: at
Encoding: 64 64 119
Width: 1709
VWidth: 0
Flags: HW
LayerCount: 2
Fore
SplineSet
1098 706 m 0
 1114 784 1135 945 1009 945 c 0
 831 945 647 678 605 475 c 1
 580 349 609 248 728 248 c 0
 816 248 917 299 993 355 c 1
 1030 472 1074 588 1098 706 c 0
1125 1295 m 0
 1482 1295 1730 1073 1646 657 c 0
 1603 442 1390 98 1139 98 c 0
 1029 98 985 191 983 289 c 1
 897 203 779 150 668 150 c 0
 476 150 412 299 448 477 c 0
 503 748 756 1024 1045 1024 c 0
 1265 1024 1289 869 1251 678 c 0
 1224 547 1167 420 1141 289 c 0
 1134 253 1123 188 1185 188 c 0
 1327 188 1444 537 1465 640 c 0
 1542 1020 1353 1188 1101 1188 c 0
 772 1188 335 902 240 432 c 0
 175 112 369 -48 699 -48 c 0
 810 -48 936 -29 1073 7 c 1
 1051 -66 l 1
 913 -126 762 -157 619 -157 c 0
 267 -157 -33 29 45 420 c 1
 144 908 631 1295 1125 1295 c 0
EndSplineSet
EndChar

StartChar: b
Encoding: 98 98 121
Width: 1005
VWidth: 0
Flags: HW
LayerCount: 2
Fore
SplineSet
631 813 m 0
 394 813 274 527 274 290 c 0
 274 127 337 82 425 82 c 0
 638 82 782 405 782 594 c 0
 782 701 731 813 631 813 c 0
347 715 m 1
 441 850 563 891 659 891 c 0
 821 891 943 778 943 597 c 0
 943 262 688 -19 404 -19 c 0
 233 -19 102 59 102 298 c 0
 102 473 167 641 322 1225 c 1
 161 1235 l 1
 144 1238 137 1250 137 1265 c 0
 137 1308 239 1316 449 1342 c 0
 456 1343 463 1344 469 1344 c 0
 490 1344 503 1336 503 1309 c 1
 502 1291 497 1263 488 1228 c 2
 347 715 l 1
EndSplineSet
EndChar

StartChar: backslash
Encoding: 92 92 122
Width: 539
VWidth: 0
Flags: HW
LayerCount: 2
Fore
SplineSet
120 1369 m 1
 121 1369 l 1
 140 1380 167 1397 179 1385 c 0
 228 1336 219 1226 234 1139 c 2
 411 69 l 2
 413 58 414 47 414 35 c 0
 414 -6 404 -58 399 -100 c 1
 395 -100 l 2
 380 -100 357 -107 353 -98 c 0
 332 -53 331 2 324 55 c 0
 266 497 160 927 120 1369 c 1
EndSplineSet
EndChar

StartChar: bar
Encoding: 124 124 123
Width: 500
VWidth: 0
Flags: HW
LayerCount: 2
Fore
SplineSet
44 -275 m 0
 44 303 269 864 400 1423 c 0
 405 1446 438 1447 460 1450 c 1
 460 1379 458 1316 444 1248 c 2
 163 -84 l 1
 149 -157 167 -296 92 -296 c 0
 73 -296 44 -294 44 -275 c 0
EndSplineSet
EndChar

StartChar: braceleft
Encoding: 123 123 124
Width: 658
VWidth: 0
Flags: HW
LayerCount: 2
Fore
SplineSet
214 464 m 0
 214 592 42 551 42 627 c 0
 42 640 53 652 61 653 c 0
 187 669 280 745 306 870 c 0
 327 969 319 1063 338 1156 c 0
 378 1357 530 1463 725 1481 c 1
 724 1472 726 1460 719 1458 c 0
 610 1436 512 1394 486 1267 c 0
 464 1163 484 1069 464 974 c 1
 436 805 335 690 203 643 c 1
 149 628 l 1
 203 611 l 1
 282 574 332 493 332 374 c 0
 332 249 245 133 217 4 c 0
 213 -14 212 -24 212 -37 c 0
 212 -135 300 -173 378 -188 c 1
 378 -194 380 -213 371 -213 c 0
 201 -213 111 -121 111 26 c 0
 111 184 214 317 214 464 c 0
EndSplineSet
EndChar

StartChar: braceright
Encoding: 125 125 125
Width: 659
VWidth: 0
Flags: HW
LayerCount: 2
Fore
SplineSet
332 893 m 0
 332 1047 451 1158 451 1304 c 0
 451 1401 376 1441 290 1456 c 1
 291 1462 289 1480 298 1480 c 0
 462 1480 557 1387 557 1241 c 0
 557 1114 454 962 454 816 c 0
 454 721 519 668 613 651 c 0
 620 650 625 635 618 630 c 0
 514 565 398 589 358 403 c 0
 338 308 346 219 328 131 c 0
 283 -82 145 -197 -66 -215 c 1
 -65 -208 -64 -192 -58 -191 c 0
 43 -169 153 -127 179 -6 c 0
 192 57 190 117 190 179 c 0
 190 411 323 561 529 617 c 2
 584 632 l 1
 529 649 l 2
 406 687 332 770 332 893 c 0
EndSplineSet
EndChar

StartChar: bracketleft
Encoding: 91 91 126
Width: 897
VWidth: 0
Flags: HW
LayerCount: 2
Fore
SplineSet
358 1446 m 1
 357 1446 l 1
 362 1470 418 1508 445 1508 c 0
 597 1508 750 1513 902 1513 c 0
 942 1513 970 1498 970 1472 c 0
 970 1418 921 1398 875 1398 c 2
 469 1398 l 1
 408 1111 330 825 269 536 c 0
 226 331 186 127 145 -78 c 1
 166 -78 l 2
 280 -78 396 -72 510 -72 c 0
 530 -72 575 -73 575 -131 c 0
 575 -182 533 -196 487 -196 c 0
 346 -196 209 -181 66 -181 c 0
 34 -181 30 -171 30 -151 c 0
 30 -144 32 -133 34 -122 c 0
 63 14 98 152 127 289 c 0
 208 675 277 1060 358 1446 c 1
EndSplineSet
EndChar

StartChar: bracketright
Encoding: 93 93 127
Width: 849
VWidth: 0
Flags: HW
LayerCount: 2
Fore
SplineSet
-5 -197 m 2
 -6 -197 l 2
 -49 -197 -64 -189 -64 -164 c 0
 -64 -84 23 -71 85 -71 c 0
 133 -71 179 -80 231 -80 c 2
 390 -80 l 1
 437 122 480 326 523 528 c 0
 584 819 630 1107 688 1396 c 1
 261 1396 l 2
 231 1396 211 1414 211 1441 c 0
 211 1489 265 1511 310 1511 c 0
 462 1511 615 1506 767 1506 c 0
 795 1506 821 1471 821 1451 c 0
 821 1110 673 779 601 444 c 0
 505 -5 527 -182 423 -182 c 0
 280 -182 133 -197 -5 -197 c 2
EndSplineSet
EndChar

StartChar: breve
Encoding: 728 728 128
Width: 701
VWidth: 0
Flags: HW
LayerCount: 2
Fore
SplineSet
183 1210 m 1
 213 1210 l 1
 240 1126 304 1094 392 1094 c 0
 475 1094 568 1125 615 1210 c 1
 641 1210 l 1
 605 1077 503 997 365 997 c 0
 235 997 180 1065 180 1168 c 0
 180 1181 181 1195 183 1210 c 1
EndSplineSet
EndChar

StartChar: brokenbar
Encoding: 166 166 129
Width: 457
VWidth: 0
Flags: HW
LayerCount: 2
Fore
SplineSet
26 -189 m 0
 26 11 98 207 147 399 c 0
 153 421 187 423 209 425 c 1
 212 409 214 392 214 373 c 0
 214 261 166 96 144 -14 c 0
 131 -76 137 -212 74 -212 c 0
 51 -212 26 -213 26 -189 c 0
342 1335 m 1
 343 1332 l 1
 360 1350 384 1357 405 1359 c 1
 409 1335 412 1317 412 1296 c 0
 412 1281 410 1266 406 1249 c 2
 299 747 l 1
 278 732 261 726 240 724 c 1
 239 737 239 746 239 758 c 0
 239 834 257 925 274 1006 c 2
 342 1335 l 1
EndSplineSet
EndChar

StartChar: bullet
Encoding: 8226 8226 130
Width: 742
VWidth: 0
Flags: HW
LayerCount: 2
Fore
SplineSet
414 835 m 0
 537 835 608 746 608 634 c 0
 608 481 479 332 309 332 c 0
 182 332 113 420 113 529 c 0
 113 683 246 835 414 835 c 0
EndSplineSet
EndChar

StartChar: c
Encoding: 99 99 131
Width: 904
VWidth: 0
Flags: HW
PickledData: "(dp1
S'com.fontlab.hintData'
p2
(dp3
S'vhints'
p4
((dp5
S'position'
p6
I65
sS'width'
p7
I170
stp8
sS'hhints'
p9
((dp10
g6
I-21
sg7
I120
s(dp11
g6
I826
sg7
I66
stp12
ss."
HStem: -21 120 826 66
VStem: 65 170
LayerCount: 2
Fore
SplineSet
514 822 m 0
 352 822 240 585 240 388 c 0
 240 239 312 99 471 99 c 0
 621 99 712 205 791 306 c 1
 866 247 l 1
 767 107 622 -19 456 -19 c 0
 248 -19 71 150 71 389 c 0
 71 658 278 891 527 891 c 0
 627 891 847 821 847 688 c 0
 847 644 825 623 775 623 c 0
 687 623 638 822 514 822 c 0
EndSplineSet
EndChar

StartChar: caron
Encoding: 711 711 133
Width: 825
VWidth: 0
Flags: HW
LayerCount: 2
Fore
SplineSet
278 1465 m 1
 456 1195 l 1
 762 1461 l 1
 779 1445 l 1
 709 1344 537 1106 513 1074 c 0
 490 1044 456 1017 427 1017 c 0
 399 1017 381 1041 371 1070 c 0
 360 1102 284 1360 259 1453 c 1
 278 1465 l 1
EndSplineSet
EndChar

StartChar: cedilla
Encoding: 184 184 137
Width: 610
VWidth: 0
Flags: HW
LayerCount: 2
Fore
SplineSet
308 -152 m 1
 402 -165 441 -204 441 -260 c 0
 441 -374 313 -451 187 -451 c 0
 150 -451 115 -443 79 -428 c 1
 90 -403 l 1
 114 -413 135 -416 158 -416 c 0
 231 -416 305 -366 305 -289 c 0
 305 -224 244 -200 182 -193 c 1
 263 0 l 1
 319 0 l 1
 308 -152 l 1
EndSplineSet
EndChar

StartChar: cent
Encoding: 162 162 138
Width: 956
VWidth: 0
Flags: HW
LayerCount: 2
Fore
SplineSet
795 641 m 0
 733 641 684 745 617 805 c 1
 463 119 l 1
 472 119 l 2
 640 119 732 224 812 327 c 1
 887 268 l 1
 782 120 637 0 443 0 c 2
 437 0 l 1
 375 -278 l 2
 357 -356 325 -368 318 -368 c 1
 318 -368 305 -364 305 -332 c 0
 305 -323 306 -314 309 -302 c 2
 378 6 l 1
 192 33 57 205 57 408 c 0
 57 677 263 911 536 911 c 0
 549 911 565 909 579 907 c 1
 627 1122 l 2
 652 1233 664 1246 692 1246 c 0
 697 1246 700 1243 700 1218 c 0
 700 1198 696 1168 686 1123 c 2
 636 897 l 1
 745 866 867 808 867 706 c 0
 867 662 845 641 795 641 c 0
557 841 m 1
 556 840 l 1
 545 843 533 845 520 845 c 0
 341 845 225 605 225 407 c 0
 225 277 279 163 404 127 c 1
 563 839 l 1
 557 841 l 1
EndSplineSet
EndChar

StartChar: circumflex
Encoding: 710 710 139
Width: 825
VWidth: 0
Flags: HW
LayerCount: 2
Fore
SplineSet
750 974 m 1
 572 1244 l 1
 266 978 l 1
 249 994 l 1
 319 1095 491 1333 515 1365 c 0
 538 1395 572 1422 601 1422 c 0
 629 1422 647 1398 657 1369 c 0
 668 1337 744 1079 769 986 c 1
 750 974 l 1
EndSplineSet
EndChar

StartChar: ck
Encoding: 65539 -1 140
Width: 1977
VWidth: 0
Flags: HW
LayerCount: 2
Fore
SplineSet
1716 687 m 0
 1716 771 1632 800 1556 800 c 0
 1475 800 1278 713 1278 713 c 1
 1214 469 l 1
 1243 466 1277 465 1310 465 c 0
 1483 465 1716 523 1716 687 c 0
1196 1315 m 0
 1305 1315 1393 1306 1393 1240 c 0
 1393 1233 1392 1225 1390 1217 c 2
 1290 801 l 1
 1388 851 1513 891 1640 891 c 0
 1746 891 1869 845 1869 689 c 0
 1869 462 1587 408 1566 403 c 1
 1610 165 1646 102 1688 102 c 0
 1737 102 1792 171 1907 318 c 1
 1970 266 l 1
 1863 118 1767 -19 1644 -19 c 0
 1567 -19 1533 6 1485 188 c 2
 1435 378 l 1
 1415 377 1395 377 1375 377 c 0
 1313 377 1254 387 1202 409 c 1
 1147 175 l 2
 1122 68 1101 0 1027 0 c 0
 962 0 946 32 946 82 c 0
 946 130 967 190 977 232 c 1
 1237 1213 l 1
 1044 1209 922 1127 922 926 c 0
 922 860 938 799 938 746 c 0
 938 662 879 598 801 598 c 0
 758 598 732 621 732 659 c 0
 732 705 776 738 776 780 c 0
 776 825 711 837 672 837 c 0
 423 837 287 521 287 315 c 0
 287 189 343 94 504 94 c 0
 601 94 726 129 778 129 c 0
 785 129 787 125 787 120 c 0
 787 107 780 100 774 89 c 1
 671 11 543 -17 431 -17 c 0
 208 -17 78 111 78 307 c 0
 78 347 84 391 95 437 c 0
 164 722 418 892 676 892 c 0
 738 892 798 883 850 857 c 1
 845 890 841 924 841 959 c 0
 841 1249 1034 1315 1196 1315 c 0
EndSplineSet
EndChar

StartChar: colon
Encoding: 58 58 141
Width: 578
VWidth: 0
Flags: HW
LayerCount: 2
Fore
SplineSet
196 775 m 0
 196 866 260 909 324 909 c 0
 390 909 453 866 453 775 c 0
 453 685 390 642 324 642 c 0
 260 642 196 685 196 775 c 0
93 150 m 0
 93 241 157 284 221 284 c 0
 287 284 350 241 350 150 c 0
 350 60 287 17 221 17 c 0
 157 17 93 60 93 150 c 0
EndSplineSet
EndChar

StartChar: comma
Encoding: 44 44 142
Width: 590
VWidth: 0
Flags: HW
LayerCount: 2
Fore
SplineSet
151 -212 m 1
 80 -116 l 1
 101 -101 l 2
 176 -48 227 -31 227 44 c 0
 227 85 174 166 174 209 c 0
 174 254 219 297 280 297 c 0
 363 297 424 226 424 124 c 0
 424 -5 297 -130 181 -195 c 2
 151 -212 l 1
EndSplineSet
EndChar

StartChar: commaaccent
Encoding: 65540 -1 143
Width: 659
VWidth: 0
Flags: HW
LayerCount: 2
Fore
SplineSet
172 -272 m 0
 172 -184 254 -108 343 -108 c 0
 405 -108 456 -132 456 -231 c 0
 456 -457 257 -561 170 -561 c 0
 154 -561 153 -560 153 -555 c 0
 153 -502 279 -552 311 -390 c 2
 315 -370 l 1
 294 -370 l 2
 207 -370 172 -328 172 -272 c 0
EndSplineSet
EndChar

StartChar: copyright
Encoding: 169 169 144
Width: 1554
VWidth: 0
Flags: HW
LayerCount: 2
Fore
SplineSet
1436 781 m 0
 1436 311 1011 -18 613 -18 c 0
 304 -18 61 196 61 505 c 0
 61 950 495 1301 885 1301 c 0
 1192 1301 1436 1091 1436 781 c 0
642 73 m 0
 978 73 1319 368 1319 762 c 0
 1319 1025 1153 1219 875 1219 c 0
 494 1219 179 881 179 519 c 0
 179 261 355 73 642 73 c 0
1167 1076 m 1
 1145 817 l 1
 1086 816 l 1
 1060 942 993 1024 853 1024 c 0
 663 1024 490 748 490 538 c 0
 490 410 555 306 722 306 c 0
 839 306 926 349 1026 415 c 1
 1056 371 l 1
 962 265 804 203 671 203 c 0
 408 203 302 347 302 520 c 0
 302 775 535 1092 832 1092 c 0
 1016 1092 1079 983 1079 983 c 1
 1079 983 1093 1076 1100 1076 c 2
 1167 1076 l 1
EndSplineSet
EndChar

StartChar: currency
Encoding: 164 164 145
Width: 1147
VWidth: 0
Flags: HW
LayerCount: 2
Fore
SplineSet
638 1000 m 0
 467 1000 295 851 295 654 c 0
 295 524 382 428 524 428 c 0
 701 428 866 588 866 771 c 0
 866 900 780 1000 638 1000 c 0
663 1092 m 0
 749 1092 812 1064 875 1022 c 1
 885 1032 l 1
 886 1032 l 1
 939 1084 986 1139 1043 1174 c 1
 1064 1156 1089 1137 1089 1112 c 0
 1089 1040 984 1012 930 963 c 1
 959 913 978 858 978 795 c 0
 978 673 920 561 831 472 c 1
 863 422 933 374 933 323 c 0
 933 285 883 259 850 259 c 0
 798 259 774 362 748 408 c 1
 669 366 587 336 502 336 c 0
 417 336 349 365 289 405 c 1
 234 350 190 254 120 254 c 0
 92 254 74 290 74 314 c 0
 74 386 180 414 235 463 c 1
 205 514 186 568 186 630 c 0
 186 750 246 866 336 956 c 1
 304 1006 233 1054 233 1106 c 0
 233 1141 283 1170 316 1170 c 0
 369 1170 390 1066 420 1019 c 1
 494 1061 581 1092 663 1092 c 0
EndSplineSet
EndChar

StartChar: d
Encoding: 100 100 146
Width: 1140
VWidth: 0
Flags: HW
LayerCount: 2
Fore
SplineSet
557 807 m 0
 376 807 252 552 252 325 c 0
 252 220 287 85 406 85 c 0
 570 85 729 370 729 550 c 0
 729 810 562 807 557 807 c 0
1112 333 m 1
 1172 286 l 1
 1083 153 975 -21 815 -21 c 0
 731 -21 688 41 688 150 c 0
 688 187 695 226 699 260 c 1
 621 114 525 -19 335 -19 c 0
 154 -19 71 195 71 351 c 0
 71 629 271 891 541 891 c 0
 626 891 750 824 770 689 c 0
 770 686 903 1192 903 1192 c 1
 909 1214 l 1
 736 1214 l 2
 712 1214 710 1220 710 1226 c 0
 710 1244 727 1294 736 1295 c 2
 1033 1331 l 2
 1040 1332 1045 1332 1052 1332 c 0
 1081 1332 1086 1327 1086 1298 c 0
 1086 1279 1080 1252 1071 1217 c 2
 826 296 l 2
 822 281 805 225 805 177 c 0
 805 138 824 91 877 91 c 0
 950 91 1011 191 1112 333 c 1
EndSplineSet
EndChar

StartChar: dagger
Encoding: 8224 8224 147
Width: 567
VWidth: 0
Flags: HW
LayerCount: 2
Fore
SplineSet
43 360 m 1
 50 401 67 475 78 475 c 2
 167 475 l 1
 243 793 346 1108 420 1423 c 0
 425 1446 458 1447 480 1450 c 1
 480 1379 478 1316 464 1248 c 2
 301 475 l 1
 502 475 l 1
 494 435 478 360 465 360 c 2
 277 360 l 1
 183 -84 l 1
 169 -157 187 -296 112 -296 c 0
 93 -296 64 -294 64 -275 c 0
 64 -61 95 150 140 360 c 1
 43 360 l 1
EndSplineSet
EndChar

StartChar: daggerdbl
Encoding: 8225 8225 148
Width: 659
VWidth: 0
Flags: HW
LayerCount: 2
Fore
SplineSet
468 470 m 2
 525 470 575 464 575 446 c 0
 575 420 541 410 497 410 c 0
 478 410 460 412 446 412 c 2
 341 412 l 1
 236 -84 l 1
 222 -157 240 -296 165 -296 c 0
 146 -296 117 -294 117 -275 c 0
 117 -44 153 185 205 412 c 1
 134 412 l 2
 122 412 105 411 89 411 c 0
 46 411 26 419 26 432 c 0
 26 472 106 470 152 470 c 2
 218 470 l 1
 233 531 249 593 265 654 c 1
 185 654 l 2
 173 654 156 653 140 653 c 0
 96 653 75 661 75 674 c 0
 75 714 155 712 201 712 c 2
 281 712 l 1
 346 950 418 1187 473 1423 c 0
 478 1446 511 1447 533 1450 c 1
 533 1379 531 1316 517 1248 c 2
 404 712 l 1
 517 712 l 2
 574 712 624 706 624 688 c 0
 624 662 591 652 547 652 c 0
 529 652 511 654 497 654 c 2
 392 654 l 1
 353 470 l 1
 468 470 l 2
EndSplineSet
EndChar

StartChar: degree
Encoding: 176 176 151
Width: 675
VWidth: 0
Flags: HW
LayerCount: 2
Fore
SplineSet
331 821 m 0
 222 821 137 901 137 1002 c 0
 137 1166 287 1271 430 1271 c 0
 537 1271 620 1196 620 1097 c 0
 620 915.900390625 468.079898977 821 331 821 c 0
591 1081 m 4
 591 1174 524 1243 422 1243 c 4
 291 1243 168 1141 168 1006 c 4
 168 910 242 849 343 849 c 4
 466.5625 849 591 947.293945312 591 1081 c 4
EndSplineSet
EndChar

StartChar: dieresis
Encoding: 168 168 152
Width: 919
VWidth: 0
Flags: HW
LayerCount: 2
Fore
SplineSet
338 1299 m 0
 381 1299 409 1269 409 1229 c 0
 409 1169 349 1115 292 1115 c 0
 247 1115 220 1143 220 1183 c 0
 220 1243 278 1299 338 1299 c 0
777 1299 m 0
 821 1299 849 1269 849 1229 c 0
 849 1169 789 1115 731 1115 c 0
 688 1115 660 1143 660 1183 c 0
 660 1243 719 1299 777 1299 c 0
EndSplineSet
EndChar

StartChar: divide
Encoding: 247 247 153
Width: 998
VWidth: 0
Flags: HW
LayerCount: 2
Fore
SplineSet
604 1109 m 2
 605 1109 l 2
 651 1109 681 1073 681 1028 c 0
 681 969 618 905 557 905 c 0
 512 905 481 938 481 981 c 0
 481 1043 542 1109 604 1109 c 2
453 345 m 2
 454 345 l 2
 500 345 531 309 531 265 c 0
 531 204 469 142 407 142 c 0
 361 142 332 175 332 220 c 0
 332 282 392 345 453 345 c 2
121 565 m 1
 121 564 l 1
 75 564 9 556 9 585 c 0
 9 629 26 682 57 682 c 0
 337 682 600 683 893 683 c 0
 944 683 976 671 1004 659 c 1
 994 620 991 568 960 568 c 0
 676 568 408 565 121 565 c 1
EndSplineSet
EndChar

StartChar: dollar
Encoding: 36 36 154
Width: 979
VWidth: 0
Flags: HW
LayerCount: 2
Fore
SplineSet
550 735 m 1
 661 654 l 2
 819 538 860 469 860 355 c 0
 860 102 622 0 405 0 c 1
 375 -139 l 2
 368 -171 354 -186 341 -186 c 0
 328 -186 318 -173 318 -150 c 0
 318 -144 318 -138 320 -131 c 2
 348 5 l 1
 216 12 92 48 7 103 c 1
 82 368 l 1
 87 369 89 369 90 369 c 0
 94 365 100 348 100 322 c 0
 100 310 98 298 98 284 c 0
 98 149 225 67 361 41 c 1
 455 526 l 1
 333 611 l 2
 236 678 188 750 188 838 c 0
 188 1086 454 1199 596 1200 c 1
 627 1354 l 2
 633 1382 645 1393 656 1393 c 0
 667 1393 677 1381 677 1360 c 0
 677 1356 677 1352 676 1347 c 2
 647 1201 l 1
 749 1196 843 1177 917 1144 c 1
 895 911 l 1
 888 910 886 910 884 910 c 0
 879 911 862 944 862 978 c 0
 862 1102 752 1139 638 1155 c 1
 550 735 l 1
502 503 m 1
 497 479 l 2
 471 353 446 205 412 34 c 1
 431 34 l 2
 551 34 689 92 689 257 c 0
 689 348 633 413 521 490 c 2
 502 503 l 1
333 959 m 0
 333 907 361 865 413 826 c 2
 510 754 l 1
 587 1154 l 1
 566 1152 l 2
 454 1141 333 1076 333 959 c 0
EndSplineSet
EndChar

StartChar: dotaccent
Encoding: 729 729 155
Width: 443
VWidth: 0
Flags: HW
LayerCount: 2
Fore
SplineSet
289 1181 m 0
 333 1181 361 1151 361 1111 c 0
 361 1051 300 997 242 997 c 0
 200 997 171 1025 171 1066 c 0
 171 1125 231 1181 289 1181 c 0
EndSplineSet
EndChar

StartChar: uni0307
Encoding: 775 775 156
Width: 443
VWidth: 0
Flags: HW
LayerCount: 2
Fore
SplineSet
258 883 m 0
 302 883 330 853 330 813 c 0
 330 753 269 699 211 699 c 0
 169 699 140 727 140 768 c 0
 140 827 200 883 258 883 c 0
EndSplineSet
EndChar

StartChar: dotlessi
Encoding: 305 305 157
Width: 634
VWidth: 0
Flags: HW
LayerCount: 2
Fore
SplineSet
634 250 m 1
 573 161 l 2
 512 73 429 -19 311 -19 c 0
 213 -19 153 65 153 163 c 0
 153 230 175 300 200 370 c 2
 301 654 l 1
 309 680 321 709 321 738 c 0
 321 777 303 806 265 806 c 0
 229 806 185 763 70 605 c 1
 18 644 l 1
 120 782 204 893 322 893 c 0
 434 893 468 818 468 723 c 0
 468 674 458 621 444 577 c 2
 339 254 l 1
 331 235 323 198 323 163 c 0
 323 134 331 91 377 91 c 0
 418 91 461 132 512 209 c 2
 569 295 l 1
 634 250 l 1
EndSplineSet
EndChar

StartChar: uni0237
Encoding: 567 567 158
Width: 639
VWidth: 0
Flags: HW
LayerCount: 2
Fore
SplineSet
420 892 m 1
 420 891 l 1
 533 891 576 827 576 728 c 0
 576 685 568 634 553 576 c 2
 472 257 l 2
 403 -13 332 -340 45 -340 c 0
 -36 -340 -168 -305 -168 -209 c 0
 -168 -170 -144 -149 -105 -149 c 0
 -18 -149 24 -248 116 -248 c 0
 209 -248 226 -109 240 -34 c 0
 264 92 292 219 325 343 c 2
 396 611 l 2
 404 642 415 680 415 714 c 0
 415 751 401 787 359 787 c 0
 322 787 284 755 248 694 c 2
 195 605 l 1
 148 643 l 1
 239 781 306 892 420 892 c 1
EndSplineSet
EndChar

StartChar: e
Encoding: 101 101 159
Width: 911
VWidth: 0
Flags: HW
PickledData: "(dp1
S'com.fontlab.hintData'
p2
(dp3
S'vhints'
p4
((dp5
S'position'
p6
I63
sS'width'
p7
I178
s(dp8
g6
I668
sg7
I169
stp9
sS'hhints'
p10
((dp11
g6
I-21
sg7
I96
s(dp12
g6
I350
sg7
I72
s(dp13
g6
I837
sg7
I55
stp14
ss."
HStem: -21 96 350 72 837 55
VStem: 63 178 668 169
LayerCount: 2
Fore
SplineSet
826 641 m 0
 826 393 413 359 248 348 c 1
 248 333 247 326 247 310 c 0
 247 197 340 79 465 79 c 0
 613 79 702 183 781 282 c 1
 851 237 l 1
 753 101 612 -19 450 -19 c 0
 242 -19 71 167 71 397 c 0
 71 672 293 891 544 891 c 0
 671 891 826 811 826 641 c 0
249 422 m 1
 264 421 269 420 288 420 c 0
 404 420 686 496 686 668 c 0
 686 755 617 818 545 818 c 0
 357 818 259 581 249 422 c 1
EndSplineSet
EndChar

StartChar: eight
Encoding: 56 56 165
Width: 922
VWidth: 0
Flags: HW
LayerCount: 2
Fore
SplineSet
858 776 m 0
 858 590 622 458 563 433 c 1
 601 395 778 292 778 113 c 0
 778 -104 542 -227 358 -227 c 0
 167 -227 42 -138 42 -1 c 0
 42 235 329 397 375 421 c 1
 337 448 201 567 201 721 c 0
 201 878 366 1009 584 1009 c 0
 763 1009 858 937 858 776 c 0
605 82 m 0
 605 185 556 260 445 355 c 1
 316 287 187 171 187 8 c 0
 187 -92 255 -145 367 -145 c 0
 494 -145 605 -30 605 82 c 0
728 801 m 0
 728 872 679 933 576 933 c 0
 416 933 354 845 354 745 c 0
 354 650 415 545 497 487 c 1
 522 501 728 616 728 801 c 0
EndSplineSet
EndChar

StartChar: ellipsis
Encoding: 8230 8230 166
Width: 1571
VWidth: 0
Flags: HW
LayerCount: 2
Fore
SplineSet
112 130 m 0
 112 221 176 264 240 264 c 0
 306 264 369 221 369 130 c 0
 369 40 306 -3 240 -3 c 0
 176 -3 112 40 112 130 c 0
631 130 m 0
 631 221 695 264 759 264 c 0
 825 264 888 221 888 130 c 0
 888 40 825 -3 759 -3 c 0
 695 -3 631 40 631 130 c 0
1150 130 m 0
 1150 221 1214 264 1278 264 c 0
 1344 264 1407 221 1407 130 c 0
 1407 40 1344 -3 1278 -3 c 0
 1214 -3 1150 40 1150 130 c 0
EndSplineSet
EndChar

StartChar: emdash
Encoding: 8212 8212 168
Width: 1785
VWidth: 0
Flags: HW
LayerCount: 2
Fore
SplineSet
130 488 m 1
 247 506 358 508 472 508 c 2
 1628 508 l 1
 1649 499 1656 489 1656 470 c 1
 1542 452 1429 452 1315 452 c 2
 159 452 l 2
 142 452 131 467 130 488 c 1
EndSplineSet
EndChar

StartChar: endash
Encoding: 8211 8211 169
Width: 1069
VWidth: 0
Flags: HW
LayerCount: 2
Fore
SplineSet
160 452 m 2
 144 452 132 469 132 490 c 1
 205 506 275 507 347 507 c 2
 906 507 l 1
 930 496 937 488 937 470 c 0
 937 452 795 452 772 452 c 2
 160 452 l 2
EndSplineSet
EndChar

StartChar: equal
Encoding: 61 61 171
Width: 849
VWidth: 0
Flags: HW
LayerCount: 2
Fore
SplineSet
611 712 m 2
 668 712 718 706 718 688 c 0
 718 662 685 652 641 652 c 0
 623 652 605 654 591 654 c 2
 279 654 l 2
 267 654 250 653 234 653 c 0
 190 653 169 661 169 674 c 0
 169 714 249 712 295 712 c 2
 611 712 l 2
562 470 m 2
 619 470 669 464 669 446 c 0
 669 420 635 410 591 410 c 0
 572 410 554 412 540 412 c 2
 228 412 l 2
 216 412 199 411 183 411 c 0
 140 411 120 419 120 432 c 0
 120 472 200 470 246 470 c 2
 562 470 l 2
EndSplineSet
EndChar

StartChar: eth
Encoding: 240 240 172
Width: 945
VWidth: 0
Flags: HW
LayerCount: 2
Fore
SplineSet
508 774 m 0
 609 774 662 726 712 656 c 1
 741 656 l 1
 741 692 l 2
 741 812 721 916 676 1005 c 1
 428 894 l 1
 428 896 l 1
 426 895 422 894 420 894 c 0
 409 894 397 905 390 921 c 1
 447 964 507 994 569 1021 c 2
 647 1055 l 1
 632 1073 l 2
 591 1123 539 1164 473 1197 c 0
 466 1200 465 1202 465 1205 c 0
 465 1217 487 1249 524 1249 c 0
 529 1249 534 1248 535 1248 c 2
 537 1248 l 1
 625 1221 669 1068 751 1102 c 2
 926 1174 l 1
 953 1173 981 1162 971 1148 c 0
 942 1110 875 1092 823 1070 c 2
 786 1054 l 1
 844 955 882 835 882 702 c 0
 882 412 687 -18 345 -18 c 0
 143 -18 47 108 47 261 c 0
 47 490 267 774 508 774 c 0
616 234 m 0
 649 307 674 400 674 484 c 0
 674 589 632 686 513 686 c 0
 403 686 331 597 300 530 c 0
 260 445 217 324 217 221 c 0
 217 124 256 37 370 37 c 0
 493 37 572 139 616 234 c 0
EndSplineSet
EndChar

StartChar: exclam
Encoding: 33 33 173
Width: 566
VWidth: 0
Flags: HW
LayerCount: 2
Fore
SplineSet
238 433 m 1
 211 433 l 1
 290 1082 l 2
 296 1133 348 1236 442 1236 c 0
 504 1236 519 1202 519 1159 c 0
 519 1135 515 1110 507 1090 c 2
 238 433 l 1
300 149 m 0
 300 63 208 0 127 0 c 0
 73 0 30 27 30 100 c 0
 30 190 121 252 199 252 c 0
 255 252 300 223 300 149 c 0
EndSplineSet
EndChar

StartChar: exclamdown
Encoding: 161 161 174
Width: 565
VWidth: 0
Flags: HW
LayerCount: 2
Fore
SplineSet
320 803 m 1
 348 803 l 1
 269 154 l 1
 261 102 210 0 116 0 c 0
 54 0 39 34 39 77 c 0
 39 101 43 126 51 146 c 2
 320 803 l 1
259 1087 m 0
 259 1173 351 1236 432 1236 c 0
 486 1236 529 1209 529 1136 c 0
 529 1046 438 984 360 984 c 0
 304 984 259 1013 259 1087 c 0
EndSplineSet
EndChar

StartChar: f
Encoding: 102 102 175
Width: 770
VWidth: 0
Flags: HW
LayerCount: 2
Fore
SplineSet
13 -292 m 1
 54 -234 124 -62 203 282 c 1
 308 727 l 1
 104 727 l 1
 125 817 l 1
 329 817 l 1
 357 949 l 2
 402 1161 498 1301 697 1301 c 0
 767 1301 882 1268 882 1147 c 0
 882 1111 851 1076 800 1076 c 0
 714 1076 726 1218 634 1218 c 0
 542 1218 481 1086 481 951 c 0
 481 905 488 859 503 817 c 1
 744 817 l 1
 722 727 l 1
 483 727 l 1
 390 337 l 2
 321 46 286 -229 64 -316 c 1
 13 -292 l 1
EndSplineSet
EndChar

StartChar: uniFB00
Encoding: 64256 64256 176
Width: 1454
VWidth: 0
Flags: HW
LayerCount: 2
Fore
SplineSet
671 1158 m 1
 671 1159 l 1
 600 1159 476 1080 476 937 c 0
 476 901 484 861 503 817 c 1
 843 817 l 1
 864 898 890 967 920 1025 c 1
 844 1057 765 1158 671 1158 c 1
1325 727 m 1
 997 727 l 1
 904 337 l 2
 835 46 800 -229 578 -316 c 1
 527 -292 l 1
 568 -234 636 -62 717 282 c 2
 822 727 l 1
 488 727 l 1
 390 324 l 1
 321 33 286 -242 64 -329 c 1
 13 -305 l 1
 54 -247 136 -62 217 282 c 2
 322 727 l 1
 75 727 l 1
 99 817 l 1
 346 817 l 1
 366 899 l 2
 416 1104 521 1239 743 1239 c 0
 832 1239 947 1211 1009 1146 c 1
 1080 1215 1169 1248 1283 1248 c 0
 1398 1248 1566 1228 1566 1087 c 0
 1566 1051 1535 1016 1484 1016 c 0
 1392 1016 1381 1165 1253 1165 c 0
 1097 1165 993 1042 993 926 c 0
 993 891 1001 855 1017 817 c 1
 1352 817 l 1
 1325 727 l 1
EndSplineSet
EndChar

StartChar: uniFB03
Encoding: 64259 64259 177
Width: 1650
VWidth: 0
Flags: HW
LayerCount: 2
Fore
SplineSet
671 1158 m 1
 671 1159 l 1
 600 1159 476 1080 476 937 c 0
 476 901 484 861 503 817 c 1
 843 817 l 1
 864 898 890 967 920 1025 c 1
 844 1057 765 1158 671 1158 c 1
527 -292 m 1
 568 -234 636 -62 717 282 c 2
 822 727 l 1
 488 727 l 1
 390 324 l 1
 321 33 286 -242 64 -329 c 1
 13 -305 l 1
 54 -247 136 -62 217 282 c 2
 322 727 l 1
 75 727 l 1
 99 817 l 1
 346 817 l 1
 366 899 l 2
 416 1104 521 1239 743 1239 c 0
 832 1239 947 1211 1009 1146 c 1
 1080 1215 1169 1248 1283 1248 c 0
 1398 1248 1566 1228 1566 1087 c 0
 1566 1051 1535 1016 1484 1016 c 0
 1392 1016 1381 1165 1253 1165 c 0
 1097 1165 993 1042 993 926 c 0
 993 891 1001 855 1017 817 c 1
 1486 817 l 1
 1495 711 l 1
 1352 258 l 1
 1340 224 1337 197 1337 172 c 0
 1337 132 1350 92 1389 92 c 0
 1430 92 1476 132 1528 210 c 2
 1585 296 l 1
 1650 251 l 1
 1589 162 l 2
 1528 73 1441 -19 1323 -19 c 0
 1228 -19 1175 65 1175 164 c 0
 1175 231 1200 301 1220 370 c 2
 1325 727 l 1
 997 727 l 1
 904 337 l 2
 835 46 800 -229 578 -316 c 1
 527 -292 l 1
EndSplineSet
EndChar

StartChar: uniFB04
Encoding: 64260 64260 178
Width: 1867
VWidth: 0
Flags: HW
LayerCount: 2
Fore
SplineSet
631 -231 m 2
 632 -231 l 2
 761 -231 774 -75 856 273 c 2
 963 727 l 1
 590 727 l 1
 494 324 l 2
 459 176 432 33 384 -78 c 2
 367 -118 l 1
 344 -154 l 2
 285 -245 198 -302 44 -302 c 0
 -28 -302 -171 -262 -171 -149 c 0
 -171 -111 -134 -90 -86 -90 c 0
 -12 -90 14 -231 92 -231 c 0
 221 -231 230 -71 316 284 c 2
 423 727 l 1
 215 727 l 1
 236 817 l 1
 444 817 l 1
 465 901 l 1
 518 1105 619 1239 842 1239 c 0
 920 1239 1042 1218 1085 1151 c 1
 1096 1131 l 1
 1112 1148 l 1
 1176 1206 1273 1239 1474 1239 c 1
 1474 1239 1792 1263 1792 1160 c 0
 1792 1142 1759 1022 1554 259 c 0
 1545 226 1539 199 1539 173 c 0
 1539 133 1552 93 1592 93 c 0
 1633 93 1679 133 1731 211 c 2
 1788 297 l 1
 1853 252 l 1
 1792 163 l 2
 1731 74 1644 -18 1525 -18 c 0
 1429 -18 1376 64 1376 162 c 0
 1376 230 1403 299 1421 372 c 2
 1510 727 l 1
 1128 727 l 1
 1032 324 l 2
 953 -9 929 -302 583 -302 c 0
 515 -302 385 -265 374 -163 c 2
 369 -117 l 1
 405 -101 l 2
 420 -94 437 -90 455 -90 c 0
 528 -90 554 -231 631 -231 c 2
1394 1134 m 0
 1284 1134 1212 1065 1169 913 c 2
 1142 817 l 1
 1531 817 l 1
 1617 1125 l 1
 1541 1129 1470 1134 1394 1134 c 0
775 1170 m 0
 686 1170 650 980 631 913 c 2
 604 817 l 1
 978 817 l 1
 1006 908 l 2
 1015 939 1025 968 1034 995 c 2
 1041 1015 l 1
 1020 1017 l 2
 968 1022 946 1170 775 1170 c 0
EndSplineSet
EndChar

StartChar: uniFB01
Encoding: 64257 64257 179
Width: 1166
VWidth: 0
Flags: HW
LayerCount: 2
Fore
SplineSet
13 -292 m 1
 54 -234 124 -62 203 282 c 1
 308 727 l 1
 104 727 l 1
 125 817 l 1
 329 817 l 1
 408 1115 540 1248 769 1248 c 0
 884 1248 1052 1228 1052 1087 c 0
 1052 1051 1021 1016 970 1016 c 0
 878 1016 867 1165 739 1165 c 0
 583 1165 479 1042 479 926 c 0
 479 891 487 855 503 817 c 1
 1002 817 l 1
 1011 711 l 1
 868 258 l 2
 857 224 853 197 853 172 c 0
 853 132 866 92 905 92 c 0
 946 92 992 132 1044 210 c 2
 1101 296 l 1
 1166 251 l 1
 1105 162 l 2
 1044 73 957 -19 839 -19 c 0
 744 -19 691 65 691 164 c 0
 691 231 716 301 736 370 c 2
 841 727 l 1
 483 727 l 1
 390 337 l 2
 321 46 286 -229 64 -316 c 1
 13 -292 l 1
EndSplineSet
EndChar

StartChar: five
Encoding: 53 53 180
Width: 824
VWidth: 0
Flags: HW
LayerCount: 2
Fore
SplineSet
211 333 m 1
 203 333 201 332 196 332 c 0
 168 332 151 334 151 355 c 0
 151 360 152 367 154 375 c 2
 292 861 l 2
 300 889 306 891 337 891 c 0
 383 891 473 872 640 872 c 0
 705 872 740 941 740 941 c 1
 792 941 l 1
 754 783 l 2
 739 721 703 720 604 720 c 2
 344 720 l 2
 327 720 319 706 314 689 c 0
 296 622 279 573 261 504 c 2
 255 481 l 1
 305 481 l 2
 552 481 653 352 653 203 c 0
 653 19 445 -206 164 -206 c 0
 23 -206 -17 -133 -17 -81 c 0
 -17 -40 14 -5 60 -5 c 0
 102 -5 144 -25 219 -111 c 1
 219 -114 228 -114 232 -114 c 0
 413 -114 517 11 517 126 c 0
 517 235 439 337 267 337 c 0
 252 337 237 336 222 335 c 1
 211 333 l 1
EndSplineSet
EndChar

StartChar: uniFB02
Encoding: 64258 64258 181
Width: 1212
VWidth: 0
Flags: HW
LayerCount: 2
Fore
SplineSet
359 927 m 1
 423 1169 473 1264 811 1264 c 1
 811 1264 1142 1249 1142 1183 c 0
 1142 1165 1102 1020 895 258 c 0
 886 225 880 198 880 172 c 0
 880 132 893 92 932 92 c 0
 973 92 1019 132 1071 210 c 2
 1128 296 l 1
 1193 251 l 1
 1132 162 l 2
 1071 73 984 -19 866 -19 c 0
 772 -19 719 63 719 161 c 0
 719 229 745 297 764 371 c 2
 856 727 l 1
 483 727 l 1
 390 337 l 2
 321 46 286 -229 64 -316 c 1
 13 -292 l 1
 54 -234 122 -62 203 282 c 2
 308 727 l 1
 104 727 l 1
 125 817 l 1
 329 817 l 1
 359 927 l 1
488 817 m 1
 869 817 l 1
 969 1168 l 1
 905 1185 834 1198 770 1198 c 0
 662 1198 574 1176 519 938 c 1
 488 817 l 1
EndSplineSet
EndChar

StartChar: florin
Encoding: 402 402 182
Width: 770
VWidth: 0
Flags: HW
LayerCount: 2
Fore
SplineSet
13 -292 m 1
 54 -234 124 -62 203 282 c 1
 308 727 l 1
 104 727 l 1
 125 817 l 1
 329 817 l 1
 357 949 l 2
 402 1161 498 1301 697 1301 c 0
 767 1301 882 1268 882 1147 c 0
 882 1111 851 1076 800 1076 c 0
 714 1076 726 1218 634 1218 c 0
 542 1218 481 1086 481 951 c 0
 481 905 488 859 503 817 c 1
 744 817 l 1
 722 727 l 1
 483 727 l 1
 390 337 l 2
 321 46 286 -229 64 -316 c 1
 13 -292 l 1
EndSplineSet
EndChar

StartChar: foundryicon
Encoding: 65541 -1 183
Width: 1239
VWidth: 0
Flags: HW
LayerCount: 2
Fore
SplineSet
794 832 m 1
 854 828 916 825 977 825 c 0
 1002 825 1060 832 1147 832 c 0
 1197 832 1227 822 1232 815 c 1
 1217 801 1153 767 1126 749 c 0
 1021 676 929 593 829 534 c 0
 805 520 819 471 819 440 c 0
 819 353 840 269 840 188 c 0
 840 138 835 89 810 89 c 0
 782 89 673 392 536 392 c 0
 485 392 196 129 141 129 c 0
 130 129 131 130 131 133 c 2
 131 136 l 1
 150 212 323 452 337 514 c 1
 337 518 l 2
 337 563 181 719 157 745 c 0
 125 779 65 802 65 830 c 0
 65 847 76 852 94 852 c 0
 163 852 235 833 310 830 c 2
 509 822 l 1
 657 1065 l 2
 684 1109 747 1217 779 1217 c 0
 784 1217 801 1203 801 1194 c 0
 801 1191 800 1191 800 1188 c 0
 791 1141 788 1086 788 1037 c 0
 788 972 794 907 794 847 c 2
 794 832 l 1
EndSplineSet
EndChar

StartChar: four
Encoding: 52 52 184
Width: 1005
VWidth: 0
Flags: HW
LayerCount: 2
Fore
SplineSet
649 82 m 1
 579 -248 l 1
 415 -248 l 1
 489 82 l 1
 65 81 l 2
 11 81 -4 101 -4 120 c 0
 -4 136 6 158 30 184 c 2
 618 810 l 2
 671 866 669 872 725 872 c 2
 831 872 l 1
 669 186 l 1
 913 186 l 1
 887 82 l 1
 649 82 l 1
119 185 m 1
 512 185 l 1
 645 740 l 1
 119 185 l 1
EndSplineSet
EndChar

StartChar: uni2074
Encoding: 8308 8308 185
Width: 836
VWidth: 0
Flags: HW
LayerCount: 2
Fore
SplineSet
570 654 m 1
 566 636 526 492 492 323 c 1
 363 323 l 1
 444 654 l 1
 297 652 l 1
 110 652 l 2
 71 652 63 667 63 676 c 0
 63 683 70 700 89 719 c 2
 544 1172 l 2
 585 1213 581 1216 625 1216 c 2
 704 1216 l 1
 584 721 l 1
 765 721 l 1
 748 654 l 1
 570 654 l 1
570 1149 m 1
 140 721 l 1
 460 721 l 1
 570 1149 l 1
EndSplineSet
EndChar

StartChar: fraction
Encoding: 8260 8260 186
Width: 800
VWidth: 0
Flags: HW
LayerCount: 2
Fore
SplineSet
841 1372 m 1
 637 962 333 512 106 98 c 0
 79 49 49 -11 14 -49 c 0
 6 -58 -10 -52 -23 -52 c 2
 -33 -52 l 1
 -29 0 -6 50 24 101 c 2
 601 1081 l 2
 643 1153 723 1385 791 1385 c 0
 812 1385 827 1380 841 1372 c 1
EndSplineSet
EndChar

StartChar: g
Encoding: 103 103 187
Width: 980
VWidth: 0
Flags: HW
LayerCount: 2
Fore
SplineSet
-72 -162 m 0
 -72 -48 94 -24 215 2 c 1
 120 40 l 2
 78 57 53 92 53 126 c 0
 53 174 106 245 256 288 c 2
 284 296 l 1
 262 317 l 2
 172 404 132 503 132 592 c 0
 132 752 263 891 480 891 c 0
 578 891 668 847 752 763 c 1
 802 826 873 897 964 897 c 0
 1012 897 1063 857 1063 808 c 0
 1063 777 1044 758 1007 758 c 0
 978 758 942 792 897 792 c 0
 857 792 791 734 791 734 c 1
 781 725 l 1
 809 665 830 598 830 542 c 0
 830 374 702 240 505 240 c 0
 420 240 355 267 347 267 c 0
 316 267 221 251 221 189 c 0
 221 42 787 104 811 -172 c 1
 811 -319 580 -354 427 -354 c 0
 226 -354 -72 -339 -72 -162 c 0
474 299 m 0
 603 299 672 453 672 588 c 0
 672 704 619 823 489 823 c 0
 363 823 290 669 290 536 c 0
 290 418 344 299 474 299 c 0
402 -289 m 0
 453 -289 669 -292 669 -186 c 0
 669 -92 296 -27 234 -16 c 1
 227 -16 67 -59 67 -167 c 1
 85 -293 307 -289 402 -289 c 0
EndSplineSet
EndChar

StartChar: germandbls
Encoding: 223 223 189
Width: 1100
VWidth: 0
Flags: HW
LayerCount: 2
Fore
SplineSet
715 694 m 1
 925 664 1044 535 1044 363 c 0
 1044 203 900 -17 683 -17 c 0
 573 -17 520 31 520 82 c 0
 520 131 557 169 596 169 c 0
 627 169 630 157 630 130 c 2
 630 107 l 2
 630 71 637 21 703 21 c 0
 775 21 851 158 851 361 c 0
 851 545 736 639 573 689 c 1
 576 699 583 717 589 718 c 0
 751 740 858 864 858 1032 c 0
 858 1138 780 1195 690 1195 c 0
 507 1195 457 992 424 841 c 2
 290 226 l 2
 287 213 285 201 285 189 c 0
 285 115 355 108 432 104 c 0
 436 104 436 92 436 76 c 0
 436 46 427 34 422 34 c 2
 -65 34 l 2
 -68 34 -72 34 -72 51 c 0
 -72 79 -56 104 -52 104 c 0
 25 104 102 113 130 239 c 2
 251 785 l 1
 301 1031 471 1254 712 1254 c 0
 899 1254 1018 1169 1018 1043 c 0
 1018 864 879 779 715 724 c 1
 715 694 l 1
EndSplineSet
EndChar

StartChar: grave
Encoding: 96 96 190
Width: 552
VWidth: 0
Flags: HW
LayerCount: 2
Fore
SplineSet
307 1337 m 1
 305 1337 l 1
 298 1344 297 1349 297 1358 c 0
 297 1390 342 1436 379 1436 c 0
 394 1436 408 1430 418 1411 c 0
 464 1325 568 1136 625 1029 c 0
 629 1021 629 1016 629 1011 c 0
 629 1001 623 997 618 997 c 0
 613 997 603 999 593 1011 c 0
 538 1071 390 1244 307 1337 c 1
EndSplineSet
EndChar

StartChar: greater
Encoding: 62 62 191
Width: 669
VWidth: 0
Flags: HW
LayerCount: 2
Fore
SplineSet
460 551 m 1
 383 692 206 854 206 1010 c 0
 206 1035 244 1051 269 1051 c 0
 380 1051 640 656 550 556 c 2
 116 71 l 2
 91 43 74 35 42 35 c 1
 41 36 l 1
 27 36 22 42 22 56 c 0
 22 124 391 482 460 551 c 1
EndSplineSet
EndChar

StartChar: guillemotleft
Encoding: 171 171 192
Width: 838
VWidth: 0
Flags: HW
LayerCount: 2
Fore
SplineSet
505 921 m 0
 505 794 290 639 198 510 c 1
 200 502 l 1
 198 504 l 1
 237 375 322 203 322 92 c 0
 322 82 309 81 301 81 c 0
 281 81 278 106 263 133 c 2
 55 505 l 1
 426 874 l 2
 446 894 465 930 484 930 c 0
 497 930 505 926 505 921 c 0
730 820 m 2
 509 512 l 1
 595 197 l 2
 599 182 601 170 601 158 c 0
 601 148 601 133 578 133 c 0
 562 133 560 158 547 182 c 2
 377 507 l 1
 487 625 642 883 742 883 c 0
 755 883 762 878 762 873 c 0
 762 851 739 832 730 820 c 2
EndSplineSet
EndChar

StartChar: guillemotright
Encoding: 187 187 193
Width: 840
VWidth: 0
Flags: HW
LayerCount: 2
Fore
SplineSet
612 505 m 0
 612 637 483 785 477 916 c 0
 477 927 503 938 510 929 c 0
 608 810 674 648 754 510 c 1
 397 144 l 2
 373 120 352 80 323 80 c 0
 316 80 313 83 309 87 c 1
 389 234 612 336 612 505 c 0
300 504 m 0
 300 611 192 759 197 865 c 0
 198 880 224 888 230 880 c 0
 311 773 431 650 431 510 c 0
 431 415 162 130 64 130 c 0
 58 130 56 133 52 137 c 1
 51 137 l 1
 105 259 300 370 300 504 c 0
EndSplineSet
EndChar

StartChar: guilsinglleft
Encoding: 8249 8249 194
Width: 577
VWidth: 0
Flags: HW
LayerCount: 2
Fore
SplineSet
480 882 m 2
 214 535 l 1
 329 180 l 2
 336 158 346 135 341 117 c 0
 339 108 327 106 320 106 c 0
 299 106 295 131 280 158 c 2
 72 530 l 1
 215 671 299 955 500 955 c 0
 514 955 519 949 523 945 c 1
 509 922 493 899 480 882 c 2
EndSplineSet
EndChar

StartChar: guilsinglright
Encoding: 8250 8250 195
Width: 567
VWidth: 0
Flags: HW
LayerCount: 2
Fore
SplineSet
339 532 m 0
 339 655 209 818 204 942 c 0
 204 955 229 964 235 956 c 0
 334 835 401 674 480 536 c 1
 124 170 l 2
 100 146 81 106 51 106 c 0
 44 106 41 109 38 112 c 1
 38 115 l 1
 107 253 339 380 339 532 c 0
EndSplineSet
EndChar

StartChar: h
Encoding: 104 104 196
Width: 1186
VWidth: 0
Flags: HW
LayerCount: 2
Fore
SplineSet
270 271 m 1
 370 432 615 891 852 891 c 0
 978 891 1022 807 1022 730 c 0
 1022 542 866 317 866 158 c 0
 866 128 873 91 908 91 c 0
 973 91 1031 174 1107 284 c 2
 1120 303 l 1
 1150 278 1168 262 1177 254 c 1
 1155 224 l 2
 1041 69 962 -19 832 -19 c 0
 746 -19 698 44 698 139 c 0
 698 356 867 619 867 721 c 0
 867 747 852 776 817 776 c 0
 695 776 485 434 417 327 c 0
 388 281 302 151 229 41 c 0
 203 3 163 -19 128 -19 c 0
 85 -19 48 12 48 82 c 0
 48 115 57 147 67 183 c 2
 368 1295 l 1
 190 1295 l 2
 164 1295 163 1300 163 1307 c 0
 163 1326 180 1375 190 1376 c 2
 488 1412 l 2
 495 1413 500 1413 507 1413 c 0
 535 1413 540 1408 540 1380 c 0
 540 1362 536 1333 527 1298 c 2
 256 278 l 1
 270 271 l 1
EndSplineSet
EndChar

StartChar: hbar
Encoding: 295 295 197
Width: 1206
VWidth: 0
Flags: HW
LayerCount: 2
Fore
SplineSet
315 264 m 1
 409 426 686 922 879 922 c 0
 1005 922 1049 837 1049 759 c 0
 1049 569 886 318 886 158 c 0
 886 128 893 91 928 91 c 0
 994 91 1050 174 1127 284 c 2
 1141 304 l 1
 1171 279 1189 263 1198 255 c 1
 1176 225 l 2
 1062 70 983 -22 853 -22 c 0
 767 -22 719 45 719 140 c 0
 719 357 895 644 895 746 c 0
 895 772 880 801 845 801 c 0
 723 801 506 435 438 328 c 0
 409 282 323 152 250 42 c 0
 230 12 198 -22 167 -22 c 0
 113 -22 69 14 69 83 c 0
 69 116 78 149 88 185 c 2
 299 963 l 1
 122 942 l 1
 129 1037 l 1
 326 1061 l 1
 389 1295 l 1
 211 1295 l 2
 185 1295 184 1300 184 1307 c 0
 184 1326 201 1375 211 1376 c 2
 509 1412 l 2
 516 1413 521 1413 528 1413 c 0
 556 1413 561 1408 561 1380 c 0
 561 1362 557 1333 548 1298 c 2
 490 1082 l 1
 675 1106 l 1
 668 1011 l 1
 463 985 l 1
 276 281 l 1
 315 264 l 1
EndSplineSet
EndChar

StartChar: hungarumlaut
Encoding: 733 733 198
Width: 566
VWidth: 0
Flags: HW
LayerCount: 2
Fore
SplineSet
645 1337 m 0
 555 1244 398 1071 340 1012 c 0
 330 1001 317 997 314 997 c 0
 309 997 303 1001 303 1011 c 0
 303 1015 305 1024 306 1028 c 1
 371 1139 482 1324 533 1411 c 1
 542 1430 555 1436 571 1436 c 0
 607 1436 653 1390 653 1358 c 0
 653 1349 652 1344 645 1337 c 0
418 1337 m 0
 334 1244 187 1071 133 1012 c 0
 123 1001 110 997 107 997 c 0
 102 997 96 1001 96 1011 c 0
 96 1015 98 1024 99 1028 c 0
 158 1139 259 1324 306 1411 c 0
 316 1430 328 1436 344 1436 c 0
 381 1436 426 1390 426 1358 c 0
 426 1349 425 1344 418 1337 c 0
EndSplineSet
EndChar

StartChar: hyphen
Encoding: 45 45 199
Width: 726
VWidth: 0
Flags: HW
LayerCount: 2
Fore
SplineSet
126 360 m 1
 133 401 150 475 161 475 c 2
 585 475 l 1
 577 435 561 360 548 360 c 2
 126 360 l 1
EndSplineSet
EndChar

StartChar: i
Encoding: 105 105 200
Width: 634
VWidth: 0
Flags: HW
PickledData: "(dp1
S'com.fontlab.hintData'
p2
(dp3
S'vhints'
p4
((dp5
S'position'
p6
I147
sS'width'
p7
I170
s(dp8
g6
I315
sg7
I147
s(dp9
g6
I365
sg7
I211
stp10
sS'hhints'
p11
((dp12
g6
I-20
sg7
I110
s(dp13
g6
I806
sg7
I86
s(dp14
g6
I1091
sg7
I221
stp15
ss."
HStem: -20 110 806 86 1091 221
VStem: 147 170 315 147 365 211
LayerCount: 2
Fore
SplineSet
634 250 m 1
 573 161 l 2
 512 73 429 -19 311 -19 c 0
 213 -19 153 65 153 163 c 0
 153 230 175 300 200 370 c 2
 301 654 l 1
 309 680 321 709 321 738 c 0
 321 777 303 806 265 806 c 0
 229 806 185 763 70 605 c 1
 18 644 l 1
 120 782 204 891 322 891 c 0
 434 891 468 818 468 723 c 0
 468 674 458 621 444 577 c 2
 339 254 l 1
 331 235 323 198 323 163 c 0
 323 134 331 91 377 91 c 0
 418 91 461 132 512 209 c 2
 569 295 l 1
 634 250 l 1
371 1217 m 0
 371 1281 411 1311 462 1311 c 0
 518 1311 574 1273 582 1197 c 1
 582 1118 545 1091 497 1091 c 0
 441 1091 371 1136 371 1217 c 0
EndSplineSet
EndChar

StartChar: j
Encoding: 106 106 209
Width: 597
VWidth: 0
Flags: HW
LayerCount: 2
Fore
SplineSet
353 891 m 0
 469 892 512 829 512 730 c 0
 512 687 504 636 489 578 c 2
 408 259 l 2
 339 -11 277 -338 -20 -338 c 0
 -101 -338 -233 -303 -233 -207 c 0
 -233 -168 -209 -147 -170 -147 c 0
 -83 -147 -41 -246 52 -246 c 0
 148 -246 165 -107 180 -32 c 0
 204 94 237 220 268 345 c 2
 335 613 l 2
 343 644 352 682 352 715 c 0
 352 752 339 788 300 788 c 0
 265 788 225 756 187 695 c 2
 132 606 l 1
 83 644 l 1
 177 781 246 891 353 891 c 0
402 1222 m 0
 402 1283 445 1313 494 1313 c 0
 550 1313 615 1270 615 1184 c 0
 615 1118 575 1092 529 1092 c 0
 471 1092 402 1139 402 1222 c 0
EndSplineSet
EndChar

StartChar: k
Encoding: 107 107 211
Width: 1075
VWidth: 0
Flags: HW
PickledData: "(dp1
S'com.fontlab.hintData'
p2
(dp3
S'vhints'
p4
((dp5
S'position'
p6
I842
sS'width'
p7
I156
stp8
sS'hhints'
p9
((dp10
g6
I-21
sg7
I122
s(dp11
g6
I389
sg7
I66
s(dp12
g6
I830
sg7
I90
s(dp13
g6
I1213
sg7
I81
stp14
ss."
HStem: -21 122 389 66 830 90 1213 81<145 158 158 336>
VStem: 842 156
LayerCount: 2
Fore
SplineSet
665 403 m 1
 709 165 745 102 787 102 c 0
 836 102 891 171 1006 318 c 1
 1069 266 l 1
 962 118 866 -19 743 -19 c 0
 666 -19 632 6 584 188 c 2
 534 378 l 1
 514 377 494 377 474 377 c 0
 412 377 353 387 301 409 c 1
 246 175 l 2
 220 68 201 0 126 0 c 0
 61 0 45 32 45 82 c 0
 45 130 65 190 76 232 c 2
 336 1213 l 1
 158 1213 l 2
 132 1213 130 1219 130 1225 c 0
 130 1243 148 1293 158 1294 c 2
 455 1330 l 2
 462 1331 467 1331 474 1331 c 2
 474 1331 474 1331 475 1331 c 0
 480 1331 502 1329 502 1300 c 0
 502 1280 497 1252 489 1217 c 2
 389 801 l 1
 487 851 612 891 739 891 c 0
 845 891 968 845 968 689 c 0
 968 462 686 408 665 403 c 1
815 687 m 0
 815 771 731 800 655 800 c 0
 574 800 377 713 377 713 c 1
 313 469 l 1
 342 466 375 465 409 465 c 0
 582 465 815 523 815 687 c 0
EndSplineSet
EndChar

StartChar: kgreenlandic
Encoding: 312 312 213
Width: 1097
VWidth: 0
Flags: HW
LayerCount: 2
Fore
SplineSet
653 403 m 1
 715 180 746 102 795 102 c 0
 844 102 899 171 1014 318 c 1
 1077 266 l 1
 970 118 874 -20 751 -20 c 0
 674 -20 637 6 592 188 c 2
 542 389 l 1
 530 389 l 1
 530 389 319 452 302 382 c 2
 248 156 l 2
 222 49 203 -21 128 -21 c 0
 63 -21 47 13 47 63 c 0
 47 111 67 171 78 213 c 2
 344 1213 l 1
 166 1213 l 2
 140 1213 138 1219 138 1225 c 0
 138 1243 156 1293 166 1294 c 2
 463 1330 l 2
 470 1331 475 1331 482 1331 c 1
 478 1333 l 1
 505 1333 510 1328 510 1300 c 0
 510 1280 506 1252 497 1217 c 2
 404 847 l 1
 432 856 l 2
 510 881 637 921 747 921 c 0
 870 921 994 870 994 687 c 0
 994 477 666 406 653 403 c 1
842 690 m 1
 832 795 757 830 663 830 c 0
 586 830 422 878 398 783 c 2
 315 455 l 1
 336 455 l 2
 515 455 842 481 842 676 c 2
 842 690 l 1
EndSplineSet
EndChar

StartChar: l
Encoding: 108 108 214
Width: 585
VWidth: 0
Flags: HW
PickledData: "(dp1
S'com.fontlab.hintData'
p2
(dp3
S'vhints'
p4
((dp5
S'position'
p6
I76
sS'width'
p7
I166
stp8
sS'hhints'
p9
((dp10
g6
I-20
sg7
I110
s(dp11
g6
I1213
sg7
I81
stp12
ss."
HStem: -20 110 1213 81
VStem: 76 166
LayerCount: 2
Fore
SplineSet
360 1224 m 1
 199 1234 l 1
 182 1237 175 1249 175 1264 c 0
 175 1307 277 1315 487 1341 c 0
 494 1342 501 1343 507 1343 c 0
 528 1343 541 1335 541 1308 c 0
 541 1290 534 1262 526 1227 c 1
 266 257 l 2
 257 224 251 195 251 169 c 0
 251 129 266 91 305 91 c 0
 346 91 392 131 444 209 c 2
 501 295 l 1
 566 250 l 1
 505 161 l 2
 444 72 357 -19 236 -19 c 0
 138 -19 84 66 84 166 c 1
 83 236 109 307 130 382 c 2
 360 1224 l 1
EndSplineSet
EndChar

StartChar: less
Encoding: 60 60 218
Width: 629
VWidth: 0
Flags: HW
LayerCount: 2
Fore
SplineSet
159 556 m 1
 197 486 391 161 391 79 c 0
 391 56 371 35 351 35 c 0
 320 35 313 40 301 66 c 2
 70 549 l 1
 186 671 431 1050 567 1050 c 0
 592 1050 606 1035 606 1018 c 2
 606 1015 l 1
 502 860 297 694 159 556 c 1
EndSplineSet
EndChar

StartChar: logicalnot
Encoding: 172 172 219
Width: 1296
VWidth: 0
Flags: HW
LayerCount: 2
Fore
SplineSet
148 876 m 2
 313 875 l 2
 362 875 411 874 460 874 c 0
 656 874 852 877 1047 877 c 0
 1085 877 1126 874 1160 870 c 1
 1154 789 1138 706 1121 623 c 2
 1076 406 l 2
 1068 368 1064 303 1029 303 c 0
 995 303 971 318 937 327 c 1
 1028 759 l 1
 194 759 l 2
 156 759 98 752 98 778 c 0
 98 816 109 876 148 876 c 2
EndSplineSet
EndChar

StartChar: lslash
Encoding: 322 322 220
Width: 585
VWidth: 0
Flags: HW
LayerCount: 2
Fore
SplineSet
636 969 m 1
 655 968 683 959 683 951 c 0
 683 932 553 872 532 862 c 2
 3 612 l 2
 0 611 -3 610 -6 610 c 0
 -18 610 -32 621 -38 637 c 1
 636 969 l 1
EndSplineSet
Refer: 214 108 N 1 0 0 1 0 0 2
EndChar

StartChar: m
Encoding: 109 109 221
Width: 1858
VWidth: 0
Flags: HW
LayerCount: 2
Fore
SplineSet
987 256 m 1
 1084 413 1340 890 1568 890 c 0
 1676 890 1712 809 1712 734 c 0
 1712 552 1553 311 1553 157 c 0
 1553 128 1560 92 1596 92 c 0
 1664 92 1714 175 1791 284 c 1
 1801 304 l 1
 1831 279 1849 263 1858 255 c 1
 1836 225 l 1
 1729 70 1650 -22 1525 -22 c 0
 1436 -22 1386 45 1386 137 c 0
 1386 342 1548 606 1548 703 c 0
 1548 727 1535 758 1499 758 c 0
 1359 758 1057 228 975 82 c 1
 948 26 922 -19 869 -19 c 0
 831 -19 791 7 791 84 c 0
 791 244 952 642 952 704 c 0
 952 728 939 759 903 759 c 0
 752 759 449 205 351 52 c 0
 331 22 295 -19 261 -19 c 0
 211 -19 173 15 173 83 c 0
 173 115 181 146 192 179 c 0
 249 354 334 607 334 713 c 0
 334 732 327 767 292 767 c 0
 220 767 151 648 75 531 c 1
 18 581 l 1
 45 622 l 2
 120 736 221 871 371 871 c 0
 442 871 485 828 485 742 c 0
 484 611 384 331 364 286 c 2
 355 266 l 1
 374 255 l 1
 474 411 743 891 957 891 c 0
 1072 891 1110 828 1110 721 c 0
 1110 595 1036 416 969 264 c 1
 987 256 l 1
EndSplineSet
EndChar

StartChar: macron
Encoding: 175 175 222
Width: 945
VWidth: 0
Flags: HW
LayerCount: 2
Fore
SplineSet
769 1035 m 1
 202 1035 l 1
 221 1129 l 1
 788 1129 l 1
 769 1035 l 1
EndSplineSet
EndChar

StartChar: minus
Encoding: 8722 8722 223
Width: 1046
VWidth: 0
Flags: HW
LayerCount: 2
Fore
SplineSet
148 874 m 2
 313 874 l 2
 557 874 603 874 847 874 c 0
 885 874 926 874 960 870 c 1
 957 833 952 796 946 759 c 1
 194 759 l 2
 181 759 165 758 150 758 c 0
 122 758 98 761 98 778 c 0
 98 816 109 874 148 874 c 2
EndSplineSet
EndChar

StartChar: uni00B5
Encoding: 181 181 224
AltUni2: 0003bc.ffffffff.0
Width: 1238
VWidth: 0
Flags: HW
LayerCount: 2
Fore
SplineSet
311 169 m 0
 311 133 331 103 366 103 c 0
 459 103 694 506 806 676 c 1
 859 752 935 891 1026 891 c 0
 1069 891 1089 842 1089 792 c 0
 1089 770 1085 749 1081 731 c 1
 935 240 l 2
 930 222 919 183 919 150 c 0
 919 119 928 91 960 91 c 0
 1012 91 1050 137 1116 229 c 2
 1174 310 l 1
 1231 264 l 1
 1174 185 l 1
 1094 66 1021 -19 903 -19 c 0
 814 -19 769 50 769 130 c 0
 769 273 845 459 892 582 c 2
 917 648 l 1
 901 656 l 1
 783 462 549 -19 317 -19 c 0
 236 -19 191 10 169 57 c 1
 101 -172 87 -226 16 -216 c 0
 -50 -206 -6 -113 8 -73 c 1
 63 61 188 350 208 402 c 0
 262 544 324 681 324 726 c 0
 324 755 306 778 274 778 c 0
 190 778 94 579 65 539 c 1
 12 587 l 1
 78 719 207 891 355 891 c 0
 451 891 484 843 484 770 c 0
 484 605 311 312 311 169 c 0
EndSplineSet
EndChar

StartChar: multiply
Encoding: 215 215 225
Width: 312
VWidth: 0
Flags: HW
LayerCount: 2
Fore
SplineSet
76 661 m 1
 74 668 72 678 72 687 c 0
 72 747 103 799 152 799 c 0
 224 799 266 769 266 683 c 0
 266 621 228 557 173 557 c 0
 125 557 83 613 76 659 c 1
 76 661 l 1
EndSplineSet
EndChar

StartChar: n
Encoding: 110 110 226
Width: 1262
VWidth: 0
Flags: HW
PickledData: "(dp1
S'com.fontlab.hintData'
p2
(dp3
S'vhints'
p4
((dp5
S'position'
p6
I312
sS'width'
p7
I163
s(dp8
g6
I800
sg7
I173
s(dp9
g6
I959
sg7
I172
stp10
sS'hhints'
p11
((dp12
g6
I-20
sg7
I112
s(dp13
g6
I760
sg7
I130
s(dp14
g6
I767
sg7
I105
stp15
ss."
HStem: -20 112 760 130 767 105<295.5 310>
VStem: 312 163 800 173 959 172
LayerCount: 2
Fore
SplineSet
364 256 m 1
 484 507 708 891 943 891 c 1
 1070 887 1114 809 1114 734 c 0
 1114 552 956 311 956 157 c 0
 956 128 963 95 997 95 c 0
 1062 95 1116 178 1191 287 c 2
 1206 309 l 1
 1237 283 1253 268 1262 259 c 1
 1240 229 l 1
 1131 74 1053 -19 926 -19 c 0
 839 -19 790 48 790 141 c 0
 790 346 939 610 939 707 c 0
 939 731 926 762 890 762 c 0
 714 762 419 177 333 44 c 0
 314 14 281 -19 250 -19 c 0
 200 -19 173 23 173 84 c 0
 173 117 181 150 192 183 c 0
 249 358 333 598 333 711 c 0
 333 730 328 767 292 767 c 0
 220 767 151 648 75 531 c 1
 18 581 l 1
 45 622 l 2
 118 734 228 872 363 872 c 0
 433 872 486 831 486 745 c 0
 486 610 393 353 352 264 c 1
 364 256 l 1
EndSplineSet
EndChar

StartChar: nine
Encoding: 57 57 230
Width: 968
VWidth: 0
Flags: HW
LayerCount: 2
Fore
SplineSet
145 -264 m 0
 383 -138 536 14 641 252 c 1
 554 134 447 84 348 84 c 0
 224 84 96 200 96 373 c 0
 96 628 297 891 528 891 c 0
 777 891 870 725 870 539 c 0
 870 176 541 -243 177 -337 c 0
 172 -338 166 -339 162 -339 c 0
 135 -339 119 -322 119 -303 c 0
 119 -288 127 -274 145 -264 c 0
547 803 m 0
 393 803 265 558 265 377 c 0
 265 273 308 189 416 189 c 0
 580 189 714 430 714 610 c 0
 714 718 666 803 547 803 c 0
EndSplineSet
EndChar

StartChar: numbersign
Encoding: 35 35 232
Width: 1167
VWidth: 0
Flags: HW
LayerCount: 2
Fore
SplineSet
638 407 m 1
 328 406 l 1
 238 226 170 38 91 -145 c 0
 72 -189 49 -222 6 -222 c 0
 -12 -222 -26 -199 -26 -167 c 0
 -26 -124 199 309 236 383 c 2
 248 407 l 1
 221 407 l 2
 200 407 173 404 145 404 c 0
 92 404 63 414 63 434 c 0
 63 473 118 487 188 487 c 0
 222 487 256 484 275 484 c 2
 286 484 l 1
 387 691 l 1
 360 691 l 2
 337 691 303 687 269 687 c 0
 211 687 179 698 179 719 c 0
 179 756 238 772 313 772 c 0
 355 772 394 768 415 768 c 2
 426 768 l 1
 521 939 610 1128 671 1310 c 0
 679 1335 724 1345 751 1345 c 0
 789 1345 789 1339 789 1317 c 0
 789 1262 558 871 518 793 c 2
 505 768 l 1
 813 768 l 1
 893 928 968 1102 1029 1269 c 0
 1049 1325 1064 1345 1122 1345 c 0
 1160 1345 1168 1334 1168 1310 c 0
 1168 1257 947 868 908 794 c 2
 895 769 l 1
 923 769 l 2
 941 769 970 771 1002 771 c 0
 1063 771 1100 759 1100 743 c 0
 1100 702 1043 687 973 687 c 0
 931 687 889 692 865 692 c 2
 854 692 l 1
 753 485 l 1
 780 485 l 2
 799 485 833 488 869 488 c 0
 937 488 983 474 983 453 c 0
 983 416 928 402 850 402 c 0
 800 402 750 408 727 408 c 2
 716 408 l 1
 627 230 559 42 481 -141 c 0
 461 -188 432 -221 386 -221 c 0
 368 -221 354 -198 354 -166 c 0
 354 -123 591 311 626 383 c 2
 638 407 l 1
775 690 m 1
 463 690 l 1
 364 483 l 1
 678 483 l 1
 775 690 l 1
EndSplineSet
EndChar

StartChar: o
Encoding: 111 111 233
Width: 977
VWidth: 0
Flags: HW
PickledData: "(dp1
S'com.fontlab.hintData'
p2
(dp3
S'vhints'
p4
((dp5
S'position'
p6
I65
sS'width'
p7
I172
s(dp8
g6
I731
sg7
I171
stp9
sS'hhints'
p10
((dp11
g6
I-20
sg7
I61
s(dp12
g6
I831
sg7
I61
stp13
ss."
HStem: -20 61 831 61
VStem: 65 172 731 171
LayerCount: 2
Fore
SplineSet
438 -19 m 0
 254 -19 71 101 71 367 c 0
 71 692 313 891 546 891 c 0
 724 891 910 775 910 510 c 0
 910 238 719 -19 438 -19 c 0
737 526 m 0
 737 715 656 795 560 795 c 0
 417 795 239 634 239 361 c 0
 239 165 327 76 430 76 c 0
 570 76 737 217 737 526 c 0
EndSplineSet
EndChar

StartChar: oe
Encoding: 339 339 237
Width: 1549
VWidth: 0
Flags: HW
LayerCount: 2
Fore
SplineSet
1480 639 m 0
 1480 392 1054 359 883 348 c 1
 883 332 l 2
 883 327 882 319 882 310 c 0
 882 198 966 75 1090 75 c 0
 1247 75 1337 180 1416 279 c 1
 1435 269 1466 249 1484 237 c 1
 1387 101 1245 -24 1071 -24 c 0
 955 -24 848 35 782 128 c 2
 770 145 l 1
 757 129 l 1
 678 36 569 -23 446 -23 c 0
 241 -23 64 168 64 398 c 0
 64 656 265 889 515 889 c 0
 644 889 753 832 820 731 c 2
 832 713 l 1
 846 729 l 2
 933 828 1056 890 1194 890 c 0
 1324 890 1480 811 1480 639 c 0
444 38 m 2
 445 38 l 2
 600 38 719 338 719 560 c 0
 719 695 674 828 543 828 c 0
 378 828 235 520 235 300 c 0
 235 155 294 38 444 38 c 2
884 421 m 1
 898 420 902 419 921 419 c 1
 922 420 l 1
 1035 420 1312 499 1312 678 c 0
 1312 763 1254 835 1184 835 c 0
 991 835 894 586 884 421 c 1
EndSplineSet
EndChar

StartChar: ogonek
Encoding: 731 731 238
Width: 581
VWidth: 0
Flags: HW
LayerCount: 2
Fore
SplineSet
307 0 m 1
 258 -42 213 -92 213 -168 c 0
 213 -247 285 -282 354 -282 c 0
 389 -282 426 -272 456 -261 c 1
 453 -304 l 1
 396 -338 335 -355 265 -355 c 0
 173 -355 104 -309 104 -228 c 0
 104 -130 166 -52 246 0 c 1
 307 0 l 1
EndSplineSet
EndChar

StartChar: one
Encoding: 49 49 241
Width: 618
VWidth: 0
Flags: HW
LayerCount: 2
Fore
SplineSet
493 891 m 1
 344 193 l 2
 342 183 341 174 341 165 c 0
 341 92 409 73 472 70 c 1
 459 0 l 1
 6 0 l 1
 25 68 l 1
 96 69 174 82 200 203 c 2
 305 697 l 2
 307 708 309 718 309 725 c 0
 309 757 282 760 168 760 c 1
 183 831 l 1
 441 891 l 1
 493 891 l 1
EndSplineSet
EndChar

StartChar: onehalf
Encoding: 189 189 242
Width: 1831
VWidth: 0
Flags: HW
LayerCount: 2
Fore
SplineSet
526 -77 m 1
 507 -81 489 -81 471 -81 c 2
 438 -81 l 1
 469 -24 493 37 534 91 c 2
 1246 1045 l 2
 1331 1159 1428 1336 1552 1410 c 1
 1583 1410 1614 1403 1637 1386 c 1
 1452 1155 1260 927 1083 691 c 0
 896 440 741 153 526 -77 c 1
1736 269 m 1
 1645 45 l 1
 1580 45 l 2
 1479 45 1377 46 1275 46 c 0
 1224 46 1174 46 1123 45 c 1
 1128 88 l 1
 1269 217 1585 439 1623 620 c 0
 1639 696 1605 761 1525 761 c 0
 1442 761 1350 697 1287 636 c 1
 1248 654 l 1
 1311 762 1444 842 1568 842 c 0
 1702 842 1816 769 1784 621 c 1
 1746 438 1427 262 1283 145 c 1
 1492 145 l 2
 1573 145 1616 152 1664 233 c 0
 1672 247 1680 259 1692 269 c 1
 1736 269 l 1
670 1295 m 1
 539 685 l 2
 526 622 514 564 591 559 c 0
 604 558 636 560 641 548 c 1
 631 512 l 1
 222 512 l 1
 228 547 l 1
 317 587 355 525 384 663 c 2
 474 1084 l 2
 498 1197 434 1169 370 1199 c 1
 378 1234 l 1
 465 1244 552 1264 637 1301 c 1
 649 1301 660 1299 670 1295 c 1
EndSplineSet
EndChar

StartChar: onequarter
Encoding: 188 188 243
Width: 1894
VWidth: 0
Flags: HW
LayerCount: 2
Fore
SplineSet
1798 251 m 1
 1670 251 l 1
 1649 155 l 2
 1637 97 1723 96 1759 84 c 1
 1751 47 l 1
 1351 47 l 1
 1359 83 l 1
 1403 98 1486 94 1499 155 c 2
 1520 251 l 1
 1169 251 l 1
 1178 319 l 1
 1655 840 l 1
 1701 842 1749 846 1796 846 c 1
 1686 328 l 1
 1796 328 1783 351 1827 386 c 1
 1837 386 1848 384 1852 367 c 1
 1837 329 1815 288 1798 251 c 1
1271 325 m 1
 1534 325 l 1
 1617 716 l 1
 1271 325 l 1
526 -77 m 1
 507 -81 489 -81 471 -81 c 2
 438 -81 l 1
 468 -27 497 42 534 91 c 2
 1246 1045 l 2
 1329 1157 1432 1338 1552 1410 c 1
 1584 1410 1614 1403 1637 1386 c 1
 1531 1254 l 2
 1380 1067 1227 883 1083 691 c 0
 932 488 796 279 655 71 c 0
 620 20 569 -31 526 -77 c 1
673 1295 m 1
 542 685 l 2
 529 622 517 564 594 559 c 0
 606 558 639 560 642 548 c 1
 634 512 l 1
 223 512 l 1
 231 547 l 1
 318 586 359 527 387 663 c 1
 477 1084 l 2
 501 1197 436 1169 371 1199 c 1
 381 1234 l 1
 468 1244 555 1264 640 1301 c 1
 652 1301 663 1299 673 1295 c 1
EndSplineSet
EndChar

StartChar: uni00B9
Encoding: 185 185 244
Width: 610
VWidth: 0
Flags: HW
LayerCount: 2
Fore
SplineSet
643 1187 m 2
 494 487 l 2
 475 399 644 455 634 407 c 0
 633 403 631 399 627 392 c 1
 161 392 l 1
 161 400 160 404 161 405 c 0
 170 449 314 411 331 491 c 2
 461 1103 l 2
 478 1181 318 1151 327 1193 c 0
 328 1197 330 1201 334 1206 c 1
 662 1291 l 1
 666 1291 667 1287 665 1278 c 0
 656 1233 646 1200 643 1187 c 2
EndSplineSet
EndChar

StartChar: ordfeminine
Encoding: 170 170 245
Width: 708
VWidth: 0
Flags: HW
LayerCount: 2
Fore
SplineSet
628 893 m 1
 642 959 l 2
 661 1047 656 1117 551 1117 c 0
 521 1117 438 1098 429 1058 c 0
 424 1035 445 1017 440 995 c 0
 434 966 373 935 347 935 c 0
 316 935 302 990 307 1016 c 0
 331 1129 505 1164 592 1164 c 0
 765 1164 798 1095 763 928 c 0
 758 907 738 842 725 780 c 0
 706 687 694 634 731 634 c 0
 743 634 761 640 784 651 c 1
 789 602 l 1
 756 560 694 546 648 546 c 0
 592 546 570 592 577 644 c 1
 505 592 426 546 343 546 c 0
 266 546 194 587 213 673 c 0
 248 839 502 853 628 893 c 1
585 688 m 1
 620 855 l 1
 531 827 375 804 352 693 c 0
 341 643 374 619 420 619 c 0
 474 619 538 654 585 688 c 1
EndSplineSet
EndChar

StartChar: ordmasculine
Encoding: 186 186 246
Width: 791
VWidth: 0
Flags: HW
LayerCount: 2
Fore
SplineSet
255 861 m 1
 293 1043 472 1164 639 1164 c 0
 818 1164 941 1048 901 858 c 0
 860 667 686 547 515 547 c 0
 342 547 214 672 255 861 c 1
398 893 m 1
 360 711 429 602 535 602 c 0
 633 602 732 680 759 808 c 0
 788 945 762 1119 623 1119 c 0
 520 1119 430 1040 398 893 c 1
EndSplineSet
EndChar

StartChar: oslash
Encoding: 248 248 247
Width: 959
VWidth: 0
Flags: HW
LayerCount: 2
Fore
SplineSet
635 820 m 1
 607 842 569 856 525 856 c 0
 369 856 231 548 231 328 c 0
 231 258 246 201 273 152 c 1
 635 820 l 1
683 741 m 1
 564 520 437 296 320 77 c 1
 348 55 386 42 433 42 c 1
 432 43 l 1
 592 43 725 342 725 565 c 0
 725 631 710 692 683 741 c 1
496 924 m 0
 557 924 616 911 665 886 c 1
 707 971 796 1154 850 1185 c 1
 850 1184 l 1
 871 1183 887 1178 900 1171 c 1
 848 1064 793 952 728 844 c 1
 828 764 894 647 894 476 c 0
 894 213 689 -19 450 -19 c 0
 392 -19 338 -2 288 23 c 1
 234 -85 177 -196 106 -285 c 0
 99 -294 82 -288 69 -288 c 2
 59 -288 l 1
 62 -236 86 -187 116 -135 c 2
 230 65 l 1
 128 147 57 273 57 418 c 0
 57 684 258 924 496 924 c 0
EndSplineSet
EndChar

StartChar: p
Encoding: 112 112 249
Width: 1102
VWidth: 0
Flags: HW
LayerCount: 2
Fore
SplineSet
690 784 m 0
 636 784 516 741 516 741 c 1
 345 81 l 1
 377 71 408 66 439 66 c 0
 680 66 898 361 898 584 c 0
 898 697 837 784 690 784 c 0
421 -346 m 0
 421 -374 405 -396 383 -396 c 2
 -84 -396 l 2
 -99 -396 -100 -393 -100 -387 c 0
 -100 -264 65 -404 113 -216 c 2
 338 673 l 1
 230 613 132 540 36 429 c 0
 31 423 29 423 27 423 c 0
 10 423 -23 451 -23 462 c 0
 -23 468 -16 480 -13 484 c 0
 108 646 358 788 358 788 c 1
 377 865 l 2
 397 945 421 1033 486 1033 c 0
 539 1033 555 988 555 942 c 0
 555 916 550 890 544 872 c 2
 538 855 l 1
 587 874 646 891 697 891 c 0
 953 891 1059 757 1059 594 c 0
 1059 331 776 -19 435 -19 c 0
 399 -19 362 -15 325 -7 c 1
 267 -215 l 2
 264 -226 262 -236 262 -244 c 0
 262 -369 421 -281 421 -346 c 0
EndSplineSet
EndChar

StartChar: paragraph
Encoding: 182 182 250
Width: 1085
VWidth: 0
Flags: HW
LayerCount: 2
Fore
SplineSet
102 844 m 0
 102 1193 423 1285 686 1285 c 2
 1134 1285 l 1
 1132 1273 l 1
 1099 1257 964 1277 950 1211 c 2
 675 -110 l 2
 674 -112 673 -114 673 -118 c 0
 673 -171 803 -165 830 -168 c 1
 822 -210 l 1
 596 -210 l 1
 899 1234 l 1
 724 1234 l 1
 421 -210 l 1
 164 -210 l 1
 172 -170 l 1
 200 -164 371 -175 383 -118 c 2
 532 592 l 1
 511 592 l 2
 289 592 102 642 102 844 c 0
EndSplineSet
EndChar

StartChar: parenleft
Encoding: 40 40 251
Width: 636
VWidth: 0
Flags: HW
LayerCount: 2
Fore
SplineSet
679 1264 m 1
 678 1264 l 1
 396 965 266 613 266 240 c 0
 266 80 292 -86 338 -249 c 1
 320 -260 303 -268 292 -268 c 0
 289 -268 284 -267 282 -264 c 0
 178 -140 93 98 93 363 c 0
 93 696 229 1068 638 1312 c 0
 639 1312 640 1313 641 1313 c 0
 647 1313 668 1286 679 1264 c 1
EndSplineSet
EndChar

StartChar: parenright
Encoding: 41 41 252
Width: 645
VWidth: 0
Flags: HW
LayerCount: 2
Fore
SplineSet
-62 -216 m 1
 -61 -216 l 1
 221 83 351 435 351 808 c 0
 351 968 325 1134 279 1297 c 1
 297 1308 314 1316 325 1316 c 0
 328 1316 333 1315 335 1312 c 0
 439 1188 524 950 524 685 c 0
 524 352 388 -20 -21 -264 c 0
 -22 -264 -23 -265 -24 -265 c 0
 -30 -265 -51 -238 -62 -216 c 1
EndSplineSet
EndChar

StartChar: percent
Encoding: 37 37 253
Width: 1560
VWidth: 0
Flags: HW
LayerCount: 2
Fore
SplineSet
1239 654 m 0
 1064 654 997 329 997 212 c 0
 997 140 1021 53 1125 53 c 0
 1304 53 1367 381 1367 503 c 0
 1367 571 1343 654 1239 654 c 0
472 1264 m 0
 294 1264 223 930 223 812 c 0
 223 738 250 648 356 648 c 0
 536 648 596 987 596 1109 c 0
 596 1174 575 1264 472 1264 c 0
1112 -6 m 0
 958 -6 888 114 888 255 c 0
 888 455 1029 717 1255 717 c 0
 1410 717 1482 593 1482 451 c 0
 1482 253 1334 -6 1112 -6 c 0
345 588 m 0
 187 588 112 708 112 854 c 0
 112 1058 259 1327 489 1327 c 0
 643 1327 707 1195 707 1058 c 0
 707 860 572 588 345 588 c 0
401 15 m 1
 370 -35 308 -137 229 -137 c 0
 213 -137 196 -132 183 -122 c 1
 216 -78 252 -36 284 9 c 2
 994 1014 l 2
 1059 1106 1152 1395 1276 1395 c 0
 1304 1395 1338 1393 1363 1381 c 1
 401 15 l 1
EndSplineSet
EndChar

StartChar: period
Encoding: 46 46 254
Width: 533
VWidth: 0
Flags: HW
LayerCount: 2
Fore
SplineSet
112 130 m 0
 112 221 176 264 240 264 c 0
 306 264 369 221 369 130 c 0
 369 40 306 -3 240 -3 c 0
 176 -3 112 40 112 130 c 0
EndSplineSet
EndChar

StartChar: periodcentered
Encoding: 183 183 255
Width: 525
VWidth: 0
Flags: HW
LayerCount: 2
Fore
SplineSet
134 609 m 0
 134 700 198 743 262 743 c 0
 328 743 391 700 391 609 c 0
 391 519 328 476 262 476 c 0
 198 476 134 519 134 609 c 0
EndSplineSet
EndChar

StartChar: perthousand
Encoding: 8240 8240 256
Width: 800
VWidth: 0
Flags: HW
LayerCount: 2
Fore
SplineSet
841 1372 m 1
 637 962 333 512 106 98 c 0
 79 49 49 -11 14 -49 c 0
 6 -58 -10 -52 -23 -52 c 2
 -33 -52 l 1
 -29 0 -6 50 24 101 c 2
 601 1081 l 2
 643 1153 723 1385 791 1385 c 0
 812 1385 827 1380 841 1372 c 1
EndSplineSet
EndChar

StartChar: plus
Encoding: 43 43 257
Width: 914
VWidth: 0
Flags: HW
LayerCount: 2
Fore
SplineSet
26 605 m 1
 25 608 l 1
 70 622 112 625 199 625 c 2
 404 625 l 1
 446 828 l 2
 461 900 467 967 490 1000 c 0
 498 1012 520 1001 537 1001 c 0
 551 1001 566 1001 576 1000 c 1
 571 954 561 904 547 836 c 2
 504 624 l 1
 714 624 l 2
 782 624 838 621 877 616 c 1
 874 586 879 540 859 529 c 0
 824 510 759 523 687 523 c 2
 484 523 l 1
 443 319 l 1
 427 248 420 181 397 148 c 0
 388 136 367 147 351 147 c 0
 337 147 321 148 310 149 c 1
 316 195 327 244 341 313 c 2
 383 523 l 1
 45 523 l 1
 25 538 21 549 21 568 c 0
 21 577 23 591 26 605 c 1
EndSplineSet
EndChar

StartChar: plusminus
Encoding: 177 177 258
Width: 917
VWidth: 0
Flags: HW
LayerCount: 2
Fore
SplineSet
34 605 m 1
 33 607 l 1
 88 623 164 627 238 627 c 0
 301 627 361 624 399 624 c 2
 413 624 l 1
 439 746 448 894 498 998 c 0
 505 1013 529 999 545 999 c 0
 558 999 574 999 585 998 c 1
 575 883 542 759 517 644 c 1
 513 623 l 1
 534 623 l 2
 589 623 645 624 702 624 c 0
 765 624 829 622 886 615 c 1
 883 585 889 539 867 528 c 0
 822 505 756 520 698 520 c 0
 633 520 567 522 505 522 c 2
 491 522 l 1
 465 399 453 254 404 148 c 0
 397 134 374 147 358 147 c 0
 345 147 329 148 318 149 c 1
 332 274 367 401 391 523 c 1
 53 523 l 1
 33 537 29 548 29 569 c 0
 29 578 31 592 34 605 c 1
609 -55 m 1
 42 -55 l 1
 61 39 l 1
 628 39 l 1
 609 -55 l 1
EndSplineSet
EndChar

StartChar: q
Encoding: 113 113 259
Width: 1013
VWidth: 0
Flags: HW
LayerCount: 2
Fore
SplineSet
693 -251 m 1
 694 -251 l 1
 694 -365 857 -283 857 -346 c 0
 857 -373 844 -392 820 -392 c 2
 567 -392 l 2
 531 -392 515 -391 515 -361 c 0
 515 -342 518 -314 528 -278 c 2
 644 153 l 1
 597 97 l 2
 542 31 454 -19 368 -19 c 0
 177 -19 56 137 56 345 c 0
 56 650 301 891 531 891 c 0
 630 891 785 840 776 635 c 1
 838 820 l 2
 847 847 863 865 903 865 c 0
 946 865 974 834 974 798 c 0
 974 792 973 786 971 779 c 2
 698 -215 l 2
 694 -229 693 -241 693 -251 c 1
219 340 m 1
 218 340 l 1
 218 156 301 71 405 71 c 0
 549 71 728 270 728 578 c 0
 728 687 698 822 554 822 c 0
 349 822 219 540 219 340 c 1
EndSplineSet
EndChar

StartChar: question
Encoding: 63 63 260
Width: 806
VWidth: 0
Flags: HW
LayerCount: 2
Fore
SplineSet
414 358 m 1
 333 358 l 1
 341 431 331 502 347 576 c 0
 371 690 753 756 802 984 c 1
 828 1110 734 1218 610 1218 c 0
 521 1218 464 1096 376 1096 c 0
 332 1096 309 1138 318 1179 c 0
 343 1294 501 1329 606 1329 c 0
 800 1329 976 1161 936 970 c 0
 860 613 475 649 422 397 c 1
 414 358 l 1
354 236 m 0
 422 236 468 179 453 111 c 0
 439 43 368 -13 301 -13 c 0
 234 -13 190 45 204 111 c 0
 218 178 286 236 354 236 c 0
EndSplineSet
EndChar

StartChar: questiondown
Encoding: 191 191 261
Width: 806
VWidth: 0
Flags: HW
LayerCount: 2
Fore
SplineSet
663 958 m 1
 744 958 l 1
 736 885 746 814 730 740 c 0
 706 626 324 560 275 332 c 0
 248 206 342 98 466 98 c 0
 555 98 612 220 700 220 c 0
 744 220 767 178 759 137 c 0
 734 22 576 -13 471 -13 c 0
 277 -13 100 155 141 346 c 0
 217 703 601 667 655 919 c 1
 663 958 l 1
723 1080 m 0
 655 1080 609 1137 624 1205 c 0
 638 1273 709 1329 776 1329 c 0
 843 1329 887 1271 873 1205 c 0
 858 1138 791 1080 723 1080 c 0
EndSplineSet
EndChar

StartChar: quotedbl
Encoding: 34 34 262
Width: 733
VWidth: 0
Flags: HW
LayerCount: 2
Fore
SplineSet
176 927 m 0
 176 1117 154 1285 295 1285 c 0
 342 1285 362 1265 362 1230 c 0
 362 1142 239 854 181 784 c 1
 177 819 176 870 176 927 c 0
490 927 m 0
 490 1116 470 1286 610 1286 c 0
 657 1286 677 1266 677 1231 c 0
 677 1183 566 868 495 783 c 1
 491 818 490 871 490 927 c 0
180 782 m 1
 182 781 l 2
 182 782 181 783 181 784 c 1
 181 783 180 782 180 782 c 1
494 781 m 1
 496 781 l 1
 496 781 495 782 495 783 c 1
 495 782 494 781 494 781 c 1
EndSplineSet
EndChar

StartChar: quotedblbase
Encoding: 8222 8222 263
Width: 864
VWidth: 0
Flags: HW
LayerCount: 2
Fore
SplineSet
160 -208 m 1
 92 -122 l 1
 154 -81 192 -62 192 1 c 0
 192 39 144 112 144 149 c 0
 144 188 184 226 238 226 c 0
 312 226 366 163 366 72 c 0
 366 -40 259 -148 160 -208 c 1
489 -207 m 1
 421 -121 l 1
 483 -80 521 -61 521 2 c 0
 521 40 473 113 473 150 c 0
 473 189 513 227 567 227 c 0
 641 227 695 164 695 73 c 0
 695 -39 588 -147 489 -207 c 1
EndSplineSet
EndChar

StartChar: quotedblleft
Encoding: 8220 8220 264
Width: 844
VWidth: 0
Flags: HW
LayerCount: 2
Fore
SplineSet
350 1211 m 1
 418 1125 l 1
 356 1084 318 1065 318 1002 c 0
 318 964 366 891 366 854 c 0
 366 815 326 777 272 777 c 0
 198 777 144 840 144 931 c 0
 144 1043 251 1151 350 1211 c 1
701 1210 m 1
 769 1124 l 1
 707 1083 669 1064 669 1001 c 0
 669 963 717 890 717 853 c 0
 717 814 677 776 623 776 c 0
 549 776 495 839 495 930 c 0
 495 1042 602 1150 701 1210 c 1
EndSplineSet
EndChar

StartChar: quotedblright
Encoding: 8221 8221 265
Width: 850
VWidth: 0
Flags: HW
LayerCount: 2
Fore
SplineSet
210 783 m 1
 142 869 l 1
 204 910 242 929 242 992 c 0
 242 1030 194 1103 194 1140 c 0
 194 1179 234 1217 288 1217 c 0
 362 1217 416 1154 416 1063 c 0
 416 951 309 843 210 783 c 1
572 784 m 1
 504 870 l 1
 566 911 604 930 604 993 c 0
 604 1031 556 1104 556 1141 c 0
 556 1180 596 1218 650 1218 c 0
 724 1218 778 1155 778 1064 c 0
 778 952 671 844 572 784 c 1
EndSplineSet
EndChar

StartChar: quoteleft
Encoding: 8216 8216 266
Width: 493
VWidth: 0
Flags: HW
LayerCount: 2
Fore
SplineSet
350 1211 m 1
 418 1125 l 1
 356 1084 318 1065 318 1002 c 0
 318 964 366 891 366 854 c 0
 366 815 326 777 272 777 c 0
 198 777 144 840 144 931 c 0
 144 1043 251 1151 350 1211 c 1
EndSplineSet
EndChar

StartChar: quoteright
Encoding: 8217 8217 267
Width: 488
VWidth: 0
Flags: HW
LayerCount: 2
Fore
SplineSet
210 783 m 1
 142 869 l 1
 204 910 242 929 242 992 c 0
 242 1030 194 1103 194 1140 c 0
 194 1179 234 1217 288 1217 c 0
 362 1217 416 1154 416 1063 c 0
 416 951 309 843 210 783 c 1
EndSplineSet
EndChar

StartChar: quotesinglbase
Encoding: 8218 8218 268
Width: 535
VWidth: 0
Flags: HW
LayerCount: 2
Fore
SplineSet
160 -208 m 1
 92 -122 l 1
 154 -81 192 -62 192 1 c 0
 192 39 144 112 144 149 c 0
 144 188 184 226 238 226 c 0
 312 226 366 163 366 72 c 0
 366 -40 259 -148 160 -208 c 1
EndSplineSet
EndChar

StartChar: quotesingle
Encoding: 39 39 269
Width: 433
VWidth: 0
Flags: HW
LayerCount: 2
Fore
SplineSet
186 769 m 1
 186 768 l 1
 178 772 168 805 168 871 c 0
 168 988 192 1157 201 1196 c 0
 213 1253 251 1285 308 1285 c 0
 355 1285 374 1266 374 1230 c 0
 374 1204 247 783 186 769 c 1
EndSplineSet
EndChar

StartChar: r
Encoding: 114 114 270
Width: 870
VWidth: 0
Flags: HW
PickledData: "(dp1
S'com.fontlab.hintData'
p2
(dp3
S'vhints'
p4
((dp5
S'position'
p6
I296
sS'width'
p7
I157
stp8
sS'hhints'
p9
((dp10
g6
I-20
sg7
I21
s(dp11
g6
I767
sg7
I105
stp12
ss."
HStem: -20 21 767 105<266 275>
VStem: 296 157
LayerCount: 2
Fore
SplineSet
444 744 m 0
 444 637 384 468 317 266 c 1
 336 258 l 1
 428 422 l 1
 512 561 665 892 845 892 c 0
 891 892 938 850 938 803 c 0
 938 717 793 692 718 654 c 0
 602 595 403 255 333 106 c 1
 292 31 254 -13 197 -13 c 0
 163 -13 137 14 137 82 c 0
 137 139 172 222 190 277 c 0
 281 551 298 670 298 719 c 0
 298 729 294 767 256 767 c 0
 184 767 109 640 69 577 c 1
 15 628 l 1
 94 743 198 872 334 872 c 0
 412 872 444 814 444 744 c 0
EndSplineSet
EndChar

StartChar: registered
Encoding: 174 174 274
Width: 1551
VWidth: 0
Flags: HW
LayerCount: 2
Fore
SplineSet
996 899 m 0
 996 1019 860 1033 756 1034 c 0
 752 1034 749 1034 749 1033 c 0
 718 925 690 802 667 683 c 1
 800 685 996 717 996 899 c 0
662 73 m 0
 819 73 977 137 1100 246 c 1
 900 246 l 1
 874 300 l 1
 830 401 779 524 740 649 c 1
 661 649 l 1
 642 551 l 2
 629 480 620 406 603 342 c 0
 602 337 601 330 601 328 c 0
 601 293 639 281 671 275 c 1
 670 247 l 1
 357 247 l 1
 356 275 l 1
 394 283 447 305 463 354 c 1
 589 956 l 2
 591 962 592 969 592 972 c 0
 592 1014 546 1032 517 1045 c 1
 518 1071 l 1
 873 1071 l 2
 1003 1071 1150 1027 1150 901 c 0
 1150 758 998 684 877 657 c 1
 913 583 998 326 1067 285 c 1
 1067 286 l 1
 1077 281 l 1
 1078 278 1082 269 1101 247 c 1
 1242 370 1339 552 1339 762 c 0
 1339 1025 1173 1219 895 1219 c 0
 514 1219 199 881 199 519 c 0
 199 261 375 73 662 73 c 0
1456 781 m 0
 1456 311 1031 -18 633 -18 c 0
 324 -18 81 196 81 505 c 0
 81 950 515 1301 905 1301 c 0
 1212 1301 1456 1091 1456 781 c 0
877 657 m 1
 876 657 l 1
 876 656 877 656 877 654 c 2
 877 657 l 1
EndSplineSet
EndChar

StartChar: ring
Encoding: 730 730 275
Width: 635
VWidth: 0
Flags: HW
LayerCount: 2
Fore
SplineSet
416 1298 m 0
 334 1298 263 1226 263 1148 c 0
 263 1092 297 1047 369 1047 c 0
 455 1047 521 1116 521 1195 c 0
 521 1252 478 1298 416 1298 c 0
422 1347 m 0
 520 1347 584 1280 584 1191 c 0
 584 1093 494 997 364 997 c 0
 266 997 199 1058 199 1142 c 0
 199 1247 293 1347 422 1347 c 0
EndSplineSet
EndChar

StartChar: s
Encoding: 115 115 276
Width: 735
VWidth: 0
Flags: HW
LayerCount: 2
Fore
SplineSet
642 190 m 0
 642 35 508 -19 373 -19 c 0
 237 -19 17 46 17 191 c 0
 17 238 42 266 106 266 c 0
 116 266 182 78 422 69 c 1
 471 69 505 96 505 179 c 0
 505 404 128 429 128 694 c 0
 128 840 279 891 402 891 c 0
 530 891 704 816 704 665 c 0
 704 639 682 617 652 617 c 0
 567 617 514 811 333 811 c 0
 287 811 254 783 254 705 c 0
 254 533 642 486 642 190 c 0
EndSplineSet
EndChar

StartChar: section
Encoding: 167 167 281
Width: 856
VWidth: 0
Flags: HW
LayerCount: 2
Fore
SplineSet
423 1073 m 1
 418 1098 420 1125 425 1152 c 0
 454 1285 582 1360 706 1360 c 0
 818 1360 1009 1331 978 1181 c 0
 971 1150 928 1134 903 1134 c 0
 835 1134 804 1296 688 1296 c 0
 616 1296 529 1262 511 1179 c 0
 472 997 920 830 824 381 c 0
 802 274 746 169 674 76 c 1
 682 46 685 13 678 -21 c 0
 650 -152 500 -222 384 -222 c 0
 268 -222 65 -187 97 -34 c 0
 106 8 141 31 181 31 c 0
 278 31 180 -149 397 -149 c 0
 471 -149 579 -121 598 -30 c 0
 648 203 185 344 272 757 c 0
 296 867 352 975 423 1073 c 1
455 1043 m 1
 414 997 384 928 372 872 c 0
 296 517 595 390 647 110 c 1
 648 107 l 1
 681 153 702 204 713 255 c 0
 770 523 582 846 455 1043 c 1
EndSplineSet
EndChar

StartChar: semicolon
Encoding: 59 59 282
Width: 593
VWidth: 0
Flags: HW
LayerCount: 2
Fore
SplineSet
101 -212 m 1
 30 -116 l 1
 51 -101 l 2
 126 -48 177 -31 177 44 c 0
 177 85 124 166 124 209 c 0
 124 254 169 297 230 297 c 0
 313 297 374 226 374 124 c 0
 374 -5 247 -130 131 -195 c 2
 101 -212 l 1
221 775 m 0
 221 866 285 909 349 909 c 0
 415 909 478 866 478 775 c 0
 478 685 415 642 349 642 c 0
 285 642 221 685 221 775 c 0
EndSplineSet
EndChar

StartChar: seven
Encoding: 55 55 283
Width: 840
VWidth: 0
Flags: HW
LayerCount: 2
Fore
SplineSet
862 844 m 1
 325 -177 l 1
 296 -229 258 -248 224 -248 c 0
 176 -248 135 -211 135 -155 c 0
 135 -131 145 -97 169 -61 c 2
 699 725 l 1
 334 725 l 2
 235 725 181 593 169 593 c 2
 94 593 l 1
 267 950 l 1
 313 951 l 1
 313 890 313 872 349 872 c 2
 845 872 l 1
 862 844 l 1
EndSplineSet
EndChar

StartChar: six
Encoding: 54 54 284
Width: 937
VWidth: 0
Flags: HW
LayerCount: 2
Fore
SplineSet
820 1136 m 0
 581 1010 430 858 324 619 c 1
 410 738 519 788 617 788 c 0
 742 788 870 672 870 499 c 0
 870 244 669 -19 438 -19 c 0
 188 -19 96 147 96 333 c 0
 96 696 424 1115 787 1209 c 0
 792 1210 798 1211 803 1211 c 0
 830 1211 846 1194 846 1175 c 0
 846 1160 838 1146 820 1136 c 0
418 69 m 0
 572 69 701 314 701 495 c 0
 701 599 658 683 549 683 c 0
 385 683 252 442 252 262 c 0
 252 154 300 69 418 69 c 0
EndSplineSet
EndChar

StartChar: slash
Encoding: 47 47 285
Width: 673
VWidth: 0
Flags: HW
LayerCount: 2
Fore
SplineSet
947 1378 m 1
 744 965 433 507 201 89 c 0
 172 37 140 -15 107 -65 c 1
 90 -69 74 -70 58 -70 c 2
 30 -70 l 1
 29 -54 32 -37 35 -21 c 0
 45 24 67 67 92 109 c 2
 669 1089 l 2
 711 1160 805 1370 873 1402 c 1
 902 1402 927 1395 947 1378 c 1
EndSplineSet
EndChar

StartChar: sterling
Encoding: 163 163 288
Width: 1183
VWidth: 0
Flags: HW
LayerCount: 2
Fore
SplineSet
469 214 m 1
 592 175 683 95 944 95 c 0
 971 95 1009 98 1009 128 c 0
 1009 195 898 219 898 267 c 0
 898 297 923 320 954 320 c 0
 1042 320 1075 249 1075 178 c 0
 1075 41 952 -6 805 -6 c 0
 615 -6 535 114 356 114 c 0
 268 114 156 81 5 -6 c 1
 7 -4 l 1
 -14 -1 -29 21 -29 51 c 0
 -29 147 254 217 281 222 c 1
 292 222 l 1
 326 315 339 408 355 508 c 1
 128 508 l 1
 132 538 137 584 147 584 c 2
 368 584 l 1
 403 827 547 1237 945 1237 c 0
 1027 1237 1138 1213 1138 1126 c 0
 1138 1081 1125 1065 1076 1065 c 0
 1030 1065 989 1166 909 1166 c 0
 665 1166 620 804 564 604 c 1
 558 582 l 1
 825 582 l 1
 819 542 807 506 790 506 c 2
 542 506 l 1
 516 406 473 231 469 214 c 1
EndSplineSet
EndChar

StartChar: t
Encoding: 116 116 289
Width: 642
VWidth: 0
Flags: HW
LayerCount: 2
Fore
SplineSet
321 872 m 1
 353 954 438 1234 520 1234 c 0
 550 1234 567 1203 564 1194 c 0
 549 1152 455 883 450 872 c 1
 694 872 l 1
 673 773 l 1
 435 773 l 1
 302 258 l 2
 295 231 283 198 283 167 c 0
 283 135 290 89 337 89 c 0
 373 89 414 124 460 203 c 2
 512 293 l 1
 577 248 l 1
 519 154 l 1
 460 67 380 -21 267 -21 c 0
 149 -21 116 56 116 153 c 1
 117 154 l 1
 117 235 139 322 157 382 c 2
 273 774 l 1
 70 774 l 1
 99 872 l 1
 321 872 l 1
EndSplineSet
EndChar

StartChar: thorn
Encoding: 254 254 292
Width: 1051
VWidth: 0
Flags: HW
LayerCount: 2
Fore
SplineSet
292 95 m 1
 292 94 l 1
 604 94 833 385 833 591 c 0
 833 701 762 787 615 787 c 0
 562 787 461 821 446 764 c 2
 271 95 l 1
 292 95 l 1
517 1330 m 1
 516 1327 l 1
 543 1327 548 1322 548 1293 c 0
 548 1274 543 1247 535 1212 c 2
 460 885 l 1
 488 895 l 2
 536 912 586 920 632 920 c 0
 905 920 1019 780 1019 612 c 0
 1019 348 729 3 268 3 c 2
 256 3 l 1
 196 -216 l 2
 192 -229 191 -241 191 -250 c 0
 191 -368 349 -283 349 -347 c 0
 349 -375 336 -394 314 -394 c 2
 -155 -394 l 2
 -170 -394 -171 -391 -171 -385 c 0
 -171 -262 -1 -403 43 -214 c 2
 378 1212 l 1
 205 1212 l 2
 180 1212 178 1218 178 1224 c 0
 178 1242 195 1292 204 1293 c 2
 498 1329 l 2
 505 1330 510 1330 517 1330 c 1
EndSplineSet
EndChar

StartChar: three
Encoding: 51 51 293
Width: 765
VWidth: 0
Flags: HW
LayerCount: 2
Fore
SplineSet
112 -173 m 1
 125 -175 147 -176 160 -176 c 0
 326 -176 423 -42 423 92 c 0
 423 200 362 308 226 350 c 1
 336 403 516 522 516 663 c 0
 516 760 460 795 391 795 c 0
 308 795 205 745 155 695 c 0
 143 683 129 677 118 677 c 0
 103 677 91 687 91 704 c 0
 91 715 96 729 109 744 c 0
 197 847 303 891 436 891 c 0
 580 891 683 816 683 701 c 0
 683 591 581 478 387 375 c 1
 537 307 593 214 593 122 c 0
 593 -65 384 -249 119 -249 c 0
 -68 -249 -122 -185 -122 -144 c 0
 -122 -103 -91 -68 -45 -68 c 0
 2 -68 29 -80 112 -173 c 1
EndSplineSet
EndChar

StartChar: threequarters
Encoding: 190 190 294
Width: 1931
VWidth: 0
Flags: HW
LayerCount: 2
Fore
SplineSet
598 950 m 1
 763 950 854 839 819 673 c 0
 780 490 573 405 414 405 c 0
 322 405 151 433 176 554 c 0
 185 596 229 633 271 633 c 0
 305 633 332 601 325 566 c 0
 320 543 301 524 297 504 c 0
 288 465 376 447 405 447 c 0
 534 447 627 549 653 670 c 0
 678 788 647 896 515 896 c 0
 490 896 464 892 439 887 c 1
 413 925 l 1
 416 926 420 928 423 930 c 0
 512 969 700 1051 721 1150 c 0
 736 1221 712 1257 639 1257 c 0
 553 1257 482 1182 406 1182 c 0
 396 1182 395 1192 397 1201 c 0
 398 1205 400 1209 402 1213 c 1
 470 1287 584 1327 672 1327 c 0
 780 1327 864 1268 839 1151 c 0
 815 1038 709 961 598 950 c 1
1798 251 m 1
 1670 251 l 1
 1649 155 l 2
 1637 97 1723 96 1759 84 c 1
 1751 47 l 1
 1351 47 l 1
 1359 83 l 1
 1403 98 1486 94 1499 155 c 2
 1520 251 l 1
 1169 251 l 1
 1178 319 l 1
 1655 840 l 1
 1701 842 1749 846 1796 846 c 1
 1686 328 l 1
 1796 328 1783 351 1827 386 c 1
 1837 386 1848 384 1852 367 c 1
 1837 329 1815 288 1798 251 c 1
1271 325 m 1
 1534 325 l 1
 1617 716 l 1
 1271 325 l 1
626 -77 m 1
 607 -81 589 -81 571 -81 c 2
 538 -81 l 1
 568 -27 597 42 634 91 c 2
 1346 1045 l 2
 1429 1157 1532 1338 1652 1410 c 1
 1684 1410 1714 1403 1737 1386 c 1
 1631 1254 l 2
 1480 1067 1327 883 1183 691 c 0
 1032 488 896 279 755 71 c 0
 720 20 669 -31 626 -77 c 1
EndSplineSet
EndChar

StartChar: uni00B3
Encoding: 179 179 295
Width: 762
VWidth: 0
Flags: HW
LayerCount: 2
Fore
SplineSet
598 917 m 1
 763 917 854 806 819 640 c 0
 780 457 573 372 414 372 c 0
 322 372 151 400 176 521 c 0
 185 563 229 600 271 600 c 0
 305 600 332 568 325 533 c 0
 320 510 301 491 297 471 c 0
 288 432 375 414 404 414 c 0
 533 414 627 516 653 637 c 0
 678 755 647 863 515 863 c 0
 490 863 464 859 439 854 c 1
 413 892 l 1
 416 893 420 895 423 897 c 0
 512 936 700 1018 721 1117 c 0
 736 1188 712 1224 639 1224 c 0
 553 1224 482 1149 406 1149 c 0
 396 1149 395 1159 397 1168 c 0
 398 1172 400 1176 402 1180 c 1
 470 1254 584 1294 672 1294 c 0
 780 1294 864 1235 839 1118 c 0
 815 1005 709 928 598 917 c 1
EndSplineSet
EndChar

StartChar: tilde
Encoding: 732 732 296
Width: 864
VWidth: 0
Flags: HW
LayerCount: 2
Fore
SplineSet
265 1040 m 1
 305 1160 366 1206 441 1206 c 0
 543 1206 637 1096 730 1096 c 0
 776 1096 797 1131 824 1184 c 1
 847 1177 l 1
 808 1053 743 997 666 997 c 0
 564 997 463 1113 372 1113 c 0
 328 1113 308 1079 284 1035 c 1
 265 1040 l 1
EndSplineSet
EndChar

StartChar: trademark
Encoding: 8482 8482 297
Width: 1936
VWidth: 0
Flags: HW
LayerCount: 2
Fore
SplineSet
279 1097 m 1
 342 1301 l 1
 376 1301 418 1290 431 1290 c 2
 936 1290 l 1
 1020 1301 l 1
 1001 1097 l 1
 977 1096 l 1
 939 1216 956 1241 808 1241 c 2
 744 1241 l 1
 626 683 l 2
 593 527 634 601 715 552 c 1
 709 528 l 1
 323 528 l 1
 328 552 l 1
 424 605 439 523 473 684 c 2
 591 1241 l 1
 570 1241 547 1242 523 1242 c 0
 429 1242 348 1185 301 1096 c 1
 279 1097 l 1
1097 1289 m 1
 1354 1289 l 1
 1508 719 l 1
 1878 1289 l 1
 2143 1289 l 1
 2139 1264 l 1
 2033 1226 2021 1274 1992 1136 c 0
 1976 1061 1952 960 1931 861 c 0
 1910 766 1894 673 1891 607 c 0
 1888 557 1963 567 1996 552 c 1
 1990 528 l 1
 1601 528 l 1
 1605 552 l 1
 1707 592 1723 539 1751 670 c 2
 1857 1171 l 1
 1436 528 l 1
 1403 528 l 1
 1239 1132 l 1
 1235 1132 l 1
 1140 683 l 2
 1111 546 1154 583 1238 552 c 1
 1232 528 l 1
 930 528 l 1
 934 552 l 1
 1044 594 1057 537 1088 685 c 2
 1186 1146 l 2
 1212 1268 1184 1225 1091 1264 c 1
 1097 1289 l 1
EndSplineSet
EndChar

StartChar: tt
Encoding: 65542 -1 298
Width: 1160
VWidth: 0
Flags: HW
LayerCount: 2
Fore
SplineSet
839 872 m 1
 871 954 956 1234 1038 1234 c 0
 1069 1234 1082 1203 1082 1194 c 1
 1067 1152 973 883 968 872 c 1
 1212 872 l 1
 1191 773 l 1
 953 773 l 1
 820 258 l 2
 813 231 801 198 801 167 c 0
 801 135 808 89 855 89 c 0
 891 89 932 124 978 203 c 2
 1030 293 l 1
 1095 248 l 1
 1037 154 l 1
 978 67 898 -21 785 -21 c 0
 667 -21 634 56 634 153 c 1
 635 154 l 1
 635 235 657 322 675 382 c 2
 791 774 l 1
 435 774 l 1
 302 258 l 2
 295 231 283 198 283 167 c 0
 283 135 290 89 337 89 c 0
 382 89 432 142 490 263 c 1
 549 214 l 1
 484 97 392 -21 267 -21 c 0
 149 -21 116 56 116 153 c 1
 117 154 l 1
 117 235 139 322 157 382 c 2
 273 774 l 1
 70 774 l 1
 99 872 l 1
 321 872 l 1
 353 954 438 1234 520 1234 c 0
 551 1234 564 1203 564 1194 c 1
 549 1152 455 883 450 872 c 1
 839 872 l 1
EndSplineSet
EndChar

StartChar: two
Encoding: 50 50 299
Width: 961
VWidth: 0
Flags: HW
LayerCount: 2
Fore
SplineSet
643 -74 m 1
 598 -74 l 2
 582 -74 605 0 557 0 c 2
 42 0 l 2
 -9 0 -11 14 -11 17 c 0
 -11 32 18 67 54 97 c 1
 408 360 l 1
 443 389 646 514 646 651 c 0
 646 749 569 783 505 783 c 0
 404 783 279 707 211 642 c 0
 198 629 187 624 176 624 c 0
 156 624 143 644 143 669 c 0
 143 689 151 712 172 729 c 0
 276 815 413 892 557 892 c 0
 706 892 826 832 826 673 c 0
 826 475 580 350 426 235 c 1
 222 119 l 1
 601 119 l 2
 709 119 731 243 764 243 c 2
 819 243 l 1
 819 231 796 209 643 -74 c 1
EndSplineSet
EndChar

StartChar: uni00B2
Encoding: 178 178 300
Width: 766
VWidth: 0
Flags: HW
LayerCount: 2
Fore
SplineSet
330 469 m 1
 597 492 l 2
 731 503 714 658 772 658 c 0
 777 658 783 656 787 655 c 1
 712 383 l 1
 698 382 l 1
 583 382 468 383 353 383 c 0
 296 383 238 383 181 382 c 1
 178 422 l 1
 341 593 633 824 680 1048 c 0
 699 1136 687 1227 584 1227 c 0
 490 1227 426 1174 339 1151 c 1
 333 1154 328 1162 330 1170 c 0
 331 1174 334 1178 336 1182 c 1
 403 1257 529 1298 616 1298 c 0
 776 1298 899 1226 862 1050 c 0
 816 836 493 623 330 469 c 1
EndSplineSet
EndChar

StartChar: u
Encoding: 117 117 301
Width: 1238
VWidth: 0
Flags: HW
PickledData: "(dp1
S'com.fontlab.hintData'
p2
(dp3
S'vhints'
p4
((dp5
S'position'
p6
I18
sS'width'
p7
I51
s(dp8
g6
I328
sg7
I171
s(dp9
g6
I824
sg7
I159
stp10
sS'hhints'
p11
((dp12
g6
I-20
sg7
I124
s(dp13
g6
I779
sg7
I113
stp14
ss."
HStem: -20 124 779 113
VStem: 18 51 328 171 824 159
LayerCount: 2
Fore
SplineSet
311 169 m 0
 311 133 331 103 366 103 c 0
 459 103 694 506 806 676 c 1
 859 752 935 891 1026 891 c 0
 1069 891 1089 842 1089 792 c 0
 1089 770 1085 749 1081 731 c 1
 935 240 l 2
 930 222 919 183 919 150 c 0
 919 119 928 91 960 91 c 0
 1012 91 1050 137 1116 229 c 2
 1174 310 l 1
 1231 264 l 1
 1174 185 l 1
 1094 66 1021 -19 903 -19 c 0
 814 -19 769 50 769 130 c 0
 769 273 845 459 892 582 c 2
 917 648 l 1
 901 656 l 1
 783 462 549 -19 317 -19 c 0
 193 -19 152 50 152 146 c 0
 152 342 324 653 324 726 c 0
 324 755 306 778 274 778 c 0
 190 778 94 579 65 539 c 1
 12 587 l 1
 78 719 207 891 355 891 c 0
 451 891 484 843 484 770 c 0
 484 605 311 312 311 169 c 0
EndSplineSet
EndChar

StartChar: underscore
Encoding: 95 95 308
Width: 1162
VWidth: 0
Flags: HW
LayerCount: 2
Fore
SplineSet
965 -117 m 0
 965 -145 877 -132 850 -132 c 2
 188 -132 l 1
 160 -118 159 -110 159 -81 c 1
 204 -66 255 -66 301 -66 c 2
 936 -66 l 1
 960 -80 965 -92 965 -117 c 0
EndSplineSet
EndChar

StartChar: uni00AD
Encoding: 173 173 331
Width: 824
VWidth: 0
Flags: HW
LayerCount: 2
Fore
SplineSet
575 408 m 2
 145 407 l 1
 136 413 136 414 136 423 c 0
 136 437 137 495 154 508 c 0
 171 522 206 512 240 512 c 2
 605 512 l 2
 636 512 663 511 685 509 c 1
 681 477 681 423 663 410 c 0
 645 397 610 408 575 408 c 2
EndSplineSet
EndChar

StartChar: uni030F
Encoding: 783 783 367
Width: 566
VWidth: 0
Flags: HW
LayerCount: 2
Fore
SplineSet
-46 1337 m 0
 -53 1344 -54 1349 -54 1358 c 0
 -54 1390 -8 1436 28 1436 c 0
 44 1436 57 1430 66 1411 c 1
 117 1324 228 1139 293 1028 c 1
 294 1024 296 1015 296 1011 c 0
 296 1001 290 997 285 997 c 0
 282 997 269 1001 259 1012 c 0
 201 1071 44 1244 -46 1337 c 0
181 1337 m 0
 174 1344 173 1349 173 1358 c 0
 173 1390 218 1436 255 1436 c 0
 271 1436 283 1430 293 1411 c 0
 340 1324 441 1139 500 1028 c 0
 501 1024 503 1015 503 1011 c 0
 503 1001 497 997 492 997 c 0
 489 997 476 1001 466 1012 c 0
 412 1071 265 1244 181 1337 c 0
EndSplineSet
EndChar

StartChar: uni0311
Encoding: 785 785 368
Width: 709
VWidth: 0
Flags: HW
LayerCount: 2
Fore
SplineSet
167 1004 m 1
 141 1004 l 1
 181 1140 275 1216 418 1216 c 0
 540 1216 603 1155 603 1052 c 0
 603 1037 602 1020 599 1004 c 1
 570 1004 l 1
 555 1092 471 1120 392 1120 c 0
 301 1120 224 1085 167 1004 c 1
EndSplineSet
EndChar

StartChar: uni0326
Encoding: 806 806 369
Width: 659
VWidth: 0
Flags: HW
LayerCount: 2
Fore
SplineSet
172 -272 m 0
 172 -184 254 -108 343 -108 c 0
 405 -108 456 -132 456 -231 c 0
 456 -457 257 -561 170 -561 c 0
 154 -561 153 -560 153 -555 c 0
 153 -502 279 -552 311 -390 c 2
 315 -370 l 1
 294 -370 l 2
 207 -370 172 -328 172 -272 c 0
EndSplineSet
EndChar

StartChar: v
Encoding: 118 118 372
Width: 1057
VWidth: 0
Flags: HW
LayerCount: 2
Fore
SplineSet
824 891 m 0
 960 891 986 599 986 560 c 0
 986 273 809 -23 527 -23 c 0
 384 -23 202 96 202 271 c 0
 202 419 319 512 432 745 c 0
 436 752 438 757 438 761 c 0
 438 767 434 770 425 770 c 2
 185 770 l 2
 170 770 147 757 147 736 c 0
 147 695 175 670 175 647 c 0
 175 619 161 599 133 599 c 0
 83 599 44 656 44 705 c 0
 44 797 130 872 221 872 c 2
 506 872 l 2
 538 872 548 859 548 841 c 0
 548 801 513 728 502 696 c 0
 462 589 359 471 359 334 c 0
 359 182 459 116 573 116 c 0
 745 116 876 260 876 436 c 0
 876 596 740 692 740 814 c 0
 740 860 771 891 824 891 c 0
EndSplineSet
EndChar

StartChar: w
Encoding: 119 119 373
Width: 1584
VWidth: 0
Flags: HW
LayerCount: 2
Fore
SplineSet
826 162 m 1
 757 90 632 -20 505 -20 c 0
 353 -20 224 100 224 276 c 0
 224 507 396 733 396 761 c 0
 396 767 392 770 383 770 c 2
 143 770 l 2
 128 770 105 757 105 736 c 0
 105 695 133 670 133 647 c 0
 133 619 119 599 91 599 c 0
 41 599 2 656 2 705 c 0
 2 797 88 872 179 872 c 2
 474 872 l 2
 506 872 515 858 515 842 c 0
 515 824 506 803 502 787 c 0
 469 655 373 494 373 334 c 0
 373 251 416 104 546 104 c 0
 642 104 767 226 775 261 c 1
 775 261 705 450 705 546 c 0
 705 730 775 891 917 891 c 0
 1042 891 1069 735 1069 649 c 0
 1069 463 920 259 920 259 c 1
 951 175 1006 111 1128 111 c 0
 1281 111 1371 261 1371 425 c 0
 1371 603 1244 673 1244 802 c 0
 1244 854 1267 891 1320 891 c 0
 1459 891 1488 612 1488 559 c 0
 1488 303 1341 -20 1108 -20 c 0
 934 -20 833 152 826 162 c 1
1000 656 m 0
 1000 700 994 789 920 789 c 0
 845 789 824 703 824 624 c 0
 824 516 854 414 883 337 c 1
 944 409 1000 529 1000 656 c 0
EndSplineSet
EndChar

StartChar: x
Encoding: 120 120 374
Width: 1089
VWidth: 0
Flags: HW
LayerCount: 2
Fore
SplineSet
186 131 m 0
 278 131 403 350 455 438 c 1
 437 493 416 561 409 585 c 1
 394 629 366 789 282 789 c 0
 168 789 140 629 111 629 c 0
 86 629 56 657 56 672 c 0
 56 673 56 674 58 677 c 0
 125 775 206 891 329 891 c 0
 497 891 555 580 555 580 c 1
 555 580 703 769 734 813 c 1
 771 858 833 890 895 890 c 0
 963 890 1059 855 1059 774 c 0
 1059 740 1020 714 980 714 c 0
 941 714 898 740 846 740 c 0
 808 740 592 480 592 469 c 0
 592 442 645 285 659 241 c 1
 678 192 699 96 783 96 c 0
 882 96 945 195 989 253 c 1
 1034 214 l 1
 1035 210 1035 205 1035 205 c 1
 863 -22 735 -19 735 -19 c 1
 584 -20 519 227 491 320 c 1
 457 268 345 124 279 55 c 1
 239 5 171 -19 99 -19 c 0
 38 -19 -30 25 -30 94 c 0
 -30 137 7 163 58 163 c 0
 96 163 138 131 186 131 c 0
EndSplineSet
EndChar

StartChar: y
Encoding: 121 121 375
Width: 1023
VWidth: 0
Flags: HW
PickledData: "(dp1
S'com.fontlab.hintData'
p2
(dp3
S'vhints'
p4
((dp5
S'position'
p6
I813
sS'width'
p7
I146
stp8
sS'hhints'
p9
((dp10
g6
I-399
sg7
I168
s(dp11
g6
I760
sg7
I131
stp12
ss."
HStem: -399 168 760 131<196.5 215>
VStem: 813 146
LayerCount: 2
Fore
SplineSet
940 644 m 1
 942 646 l 1
 942 265 456 -398 96 -397 c 0
 18 -397 -102 -356 -102 -264 c 0
 -102 -217 -46 -197 11 -197 c 0
 68 -197 130 -232 193 -232 c 0
 270 -232 310 -200 478 -23 c 1
 478 -23 375 315 320 505 c 0
 273 666 234 760 196 760 c 0
 124 760 54 615 25 574 c 1
 -27 618 l 1
 58 761 136 891 257 891 c 0
 324 891 368 824 391 751 c 0
 455 541 532 275 588 92 c 1
 628 149 794 405 794 502 c 0
 794 627 711 715 711 818 c 0
 711 864 732 891 785 891 c 0
 905 891 940 722 940 644 c 1
EndSplineSet
EndChar

StartChar: yen
Encoding: 165 165 378
Width: 1284
VWidth: 0
Flags: HW
LayerCount: 2
Fore
SplineSet
220 336 m 2
 428 336 l 1
 448 443 l 1
 440 459 l 1
 429 459 l 2
 314 459 281 458 256 458 c 0
 157 458 144 472 144 499 c 0
 144 512 161 520 352 520 c 2
 425 520 l 1
 280 1032 l 2
 259 1107 228 1147 96 1147 c 0
 92 1147 89 1147 89 1166 c 0
 89 1189 95 1217 102 1217 c 2
 583 1217 l 1
 585 1213 588 1204 588 1188 c 0
 588 1160 580 1147 574 1147 c 0
 523 1147 426 1140 426 1049 c 0
 426 1035 428 1020 433 1003 c 2
 561 549 l 1
 933 1017 l 1
 948 1040 960 1061 960 1083 c 0
 960 1127 932 1147 836 1147 c 0
 832 1147 829 1147 829 1166 c 0
 829 1189 835 1217 842 1217 c 2
 1306 1217 l 1
 1308 1213 1311 1204 1311 1188 c 0
 1311 1160 1303 1147 1297 1147 c 0
 1232 1147 1165 1125 1078 1018 c 2
 674 520 l 1
 872 520 l 2
 904 520 947 508 947 491 c 0
 947 487 932 460 873 460 c 2
 621 460 l 1
 597 338 l 1
 860 340 l 2
 906 340 912 322 912 319 c 0
 912 292 862 277 824 277 c 2
 586 277 l 1
 574 210 l 2
 571 198 569 187 569 176 c 0
 569 99 638 91 725 87 c 0
 729 87 729 75 729 59 c 0
 729 29 720 17 714 17 c 2
 213 17 l 2
 210 17 206 17 206 35 c 0
 206 63 222 88 226 88 c 0
 304 88 379 97 408 223 c 1
 418 277 l 1
 295 277 l 2
 132 277 104 292 104 296 c 0
 104 313 113 336 220 336 c 2
EndSplineSet
EndChar

StartChar: z
Encoding: 122 122 379
Width: 865
VWidth: 0
Flags: HW
LayerCount: 2
Fore
SplineSet
753 118 m 1
 753 149 656 159 656 236 c 0
 656 272 689 297 732 297 c 0
 782 297 839 262 839 164 c 0
 839 32 707 -19 582 -19 c 0
 397 -19 292 101 218 101 c 0
 138 101 122 10 119 -20 c 1
 73 -20 l 1
 56 3 56 30 56 55 c 0
 56 231 247 381 377 462 c 1
 456 513 558 600 645 681 c 1
 645 681 613 659 545 659 c 0
 451 659 361 795 282 795 c 0
 256 795 225 790 225 763 c 0
 225 724 280 695 280 651 c 0
 280 618 252 597 215 597 c 0
 154 597 106 654 106 724 c 0
 106 829 225 891 330 891 c 0
 428 891 570 764 650 764 c 0
 723 764 737 891 762 891 c 0
 772 891 784 893 793 893 c 0
 807 893 818 889 818 873 c 0
 818 823 797 777 775 735 c 0
 694 584 556 483 426 393 c 1
 347 330 266 258 197 166 c 1
 247 179 302 199 357 199 c 0
 483 199 561 81 675 81 c 0
 737 81 755 91 753 118 c 1
EndSplineSet
EndChar

StartChar: zero
Encoding: 48 48 383
Width: 1062
VWidth: 0
Flags: HW
LayerCount: 2
Fore
SplineSet
97 363 m 0
 97 623 299 891 596 891 c 0
 848 891 995 717 995 504 c 0
 995 230 772 -19 489 -19 c 0
 254 -19 97 141 97 363 c 0
492 76 m 0
 677 76 820 303 820 531 c 0
 820 686 729 795 586 795 c 0
 402 795 264 570 264 366 c 0
 264 216 344 76 492 76 c 0
EndSplineSet
EndChar
